<?xml version="1.0" encoding="utf-8"?>
<!-- Generator: Adobe Illustrator 21.1.0, SVG Export Plug-In . SVG Version: 6.00 Build 0)  -->
<svg version="1.1" id="Layer_1" xmlns="http://www.w3.org/2000/svg" xmlns:xlink="http://www.w3.org/1999/xlink" x="0px" y="0px"
	 viewBox="0 0 60 60" style="enable-background:new 0 0 60 60;" xml:space="preserve">
<style type="text/css">
	.st0{fill-rule:evenodd;clip-rule:evenodd;fill:#F15B25;}
</style>
<g>
	<path class="st0" d="M30.1,0.2c15-1,30.2,12.6,29.9,30.2c-0.2,16.2-14.1,30-30.9,29.6c-15.4-0.4-29.5-13.8-29-31
		C0.5,13,14.7-0.8,30.1,0.2z M28,2.7C14.1,3,2.7,16,2.8,27.8c0.9,0.9,1.5,1.5,2.1,2.1c-0.6,0.6-1.3,1.2-2.1,2
		c0.5,14.6,14,25.4,25.3,25.1c0.7-0.8,1.3-1.4,1.8-2c0.7,0.6,1.4,1.2,2.3,2.1c13.5-0.5,24.8-12.8,25-25.3c-0.8-0.7-1.5-1.3-2.1-1.9
		c0.6-0.7,1.3-1.3,2.1-2.3c-0.6-14.3-13.6-25-25.1-25c-1,0.9-1.6,1.5-2.3,2.1C29.3,4.2,28.8,3.6,28,2.7z"/>
	<path class="st0" d="M14.6,46.5c-0.3-0.8-0.6-1.4-0.7-2c0-0.4,0.4-0.8,0.7-1.2c3.6-5.4,7.1-10.8,10.8-16.2c0.5-0.8,1.2-1.4,2-1.9
		c5.4-3.6,10.9-7.3,16.3-10.8c0.5-0.3,1.3-0.8,1.8-0.6c1.4,0.5,0.8,1.5,0.2,2.4c-2.6,4-5.4,7.8-7.8,11.9c-2.4,4.2-5.7,7.3-9.8,9.8
		c-3.9,2.4-7.7,5-11.5,7.6C16,45.8,15.5,46,14.6,46.5z M20.1,39.5c0.1,0.1,0.2,0.2,0.3,0.4c3.8-2.5,7.7-5.1,11.4-7.5
		c-1.4-1.4-2.8-2.8-4.2-4.2C25.2,31.8,22.6,35.7,20.1,39.5z"/>
</g>
</svg>
