<?xml version="1.0" encoding="utf-8"?>
<!-- Generator: Adobe Illustrator 21.1.0, SVG Export Plug-In . SVG Version: 6.00 Build 0)  -->
<svg version="1.1" id="Layer_1" xmlns="http://www.w3.org/2000/svg" xmlns:xlink="http://www.w3.org/1999/xlink" x="0px" y="0px"
	 viewBox="0 0 60 60" style="enable-background:new 0 0 60 60;" xml:space="preserve">
<style type="text/css">
	.st0{fill-rule:evenodd;clip-rule:evenodd;fill:#F15B25;}
</style>
<path class="st0" d="M30,49C17.4,48.4,7.8,42.9,0.7,32.2c-1-1.5-1-2.9,0-4.5c6.2-9.4,14.6-15,25-16.4c1.6-0.2,3.2-0.3,4.7-0.3
	c8.3,0,16,3.2,23,9.6c2.2,2,4.1,4.3,5.8,7c1,1.6,1.1,3.1,0.1,4.6C52.2,42.9,42.6,48.4,30,49L30,49L30,49z M15.5,17.5
	c-0.5,0-0.9,0.3-1.2,0.5c-0.1,0.1-0.1,0.1-0.2,0.1C10,20.7,6.5,24.1,3.4,28.5c-0.7,1-0.7,2,0,3c1.9,2.7,4.1,5.1,6.5,7.1
	c5.8,5,12.3,7.6,19.3,7.7c0.2,0,0.4,0,0.5,0c10.9,0,19.7-4.9,27-15c0.6-0.9,0.6-1.8,0-2.7c-3.1-4.5-6.8-8.1-11.2-10.6
	c0,0-0.1,0-0.1-0.1c-0.2-0.2-0.6-0.4-1.1-0.4c-0.2,0-0.4,0-0.6,0.1l-0.5,0.2l-0.1,0.5C43,19,43.3,19.6,43.5,20
	c0.1,0.1,0.1,0.2,0.2,0.3c1.9,5.7,1,10.6-2.7,14.8c-2.9,3.3-6.4,5-10.6,5c-1.2,0-2.4-0.1-3.6-0.4c-4.1-0.9-7.5-3.4-9.5-7
	c-2.1-3.8-2.3-8.4-0.7-12.6l0,0l0.1-0.1c0.7-1.2,0.1-1.9-0.3-2.2C16.1,17.6,15.8,17.5,15.5,17.5z M29.5,14.2
	c-5.6,0-10.9,5.3-10.9,10.9c-0.1,1.7,0.9,2.9,2.4,3c0.1,0,0.1,0,0.2,0c1.4,0,2.3-1,2.5-2.6c0.5-4.1,2.2-5.7,6.3-6.3
	c2.2-0.3,2.5-1.8,2.5-2.6c0-0.9-0.4-2.3-2.7-2.4C29.7,14.2,29.6,14.2,29.5,14.2z"/>
</svg>
