<?xml version="1.0" encoding="utf-8"?>
<!-- Generator: Adobe Illustrator 21.1.0, SVG Export Plug-In . SVG Version: 6.00 Build 0)  -->
<svg version="1.1" id="Layer_1" xmlns="http://www.w3.org/2000/svg" xmlns:xlink="http://www.w3.org/1999/xlink" x="0px" y="0px"
	 viewBox="0 0 60 60" style="enable-background:new 0 0 60 60;" xml:space="preserve">
<style type="text/css">
	.st0{fill-rule:evenodd;clip-rule:evenodd;fill:#F15B25;}
	.st1{fill-rule:evenodd;clip-rule:evenodd;fill:#F15B25;stroke:#F15B25;stroke-miterlimit:10;}
</style>
<g>
	<path class="st0" d="M51,0c0.5,0.1,0.9,0.1,1.4,0.2c3.2,0.6,5.9,3.4,6.4,6.6c0.1,0.5,0.1,1,0.1,1.5c0,14.5,0,29,0,43.5
		c0,3.9-2.8,7.3-6.6,8c-0.5,0.1-1,0.1-1.5,0.1c-13.8,0-27.6,0-41.4,0c-4,0-7.4-3-8-6.9c-0.1-0.5-0.1-1-0.1-1.5c0-14.5,0-29,0-43.4
		c0-4.1,2.9-7.3,6.7-8C8.3,0.1,8.7,0.1,9,0C23,0,37,0,51,0z M56.8,30c0-7.3,0-14.5,0-21.8c0-0.3,0-0.6-0.1-0.9c-0.4-3-3-5.3-6.1-5.3
		c-13.7,0-27.5,0-41.2,0c-0.4,0-0.7,0-1.1,0.1c-3,0.6-5.1,3.1-5.1,6.2c0,14.5,0,29,0,43.4c0,0.5,0,0.9,0.1,1.4
		C3.9,55.8,6.5,58,9.2,58c13.9,0,27.7,0,41.6,0c0.3,0,0.6,0,0.9-0.1c3.1-0.6,5.1-3.3,5-6.1C56.7,44.5,56.8,37.3,56.8,30z"/>
	<path class="st1" d="M29.7,10.8c4.8,0,9.7,0,14.5,0c2.7,0,4.8,1.3,6.3,3.6c0.7,1.2,1,2.4,1,3.8c0,8.5,0,17,0,25.5
		c0,3.7-2.6,6.6-5.8,7.2c-0.5,0.1-1.1,0.2-1.7,0.2c-9.6,0-19.1,0-28.7,0c-3.5,0-6.6-2.5-7.3-6C8,44.7,8,44.2,8,43.7
		c0-8.5,0-17.1,0-25.6c0-3.4,2.4-6.6,6.1-7.3c0.4-0.1,0.8-0.1,1.3-0.1C20.1,10.8,24.9,10.8,29.7,10.8z M30.2,49c0.2,0,0.3,0,0.5,0
		c4.4,0,8.8,0,13.1,0c0.3,0,0.7,0,1-0.1c2.7-0.4,4.6-2.6,4.6-5.4c0-5.2,0-10.5,0-15.7c0-0.3-0.1-0.4-0.4-0.4c-5.4,0-10.8,0-16.2,0
		c-0.1,0-0.2,0-0.4,0c0,0.4,0,0.9,0,1.3c0,0.3,0,0.6-0.4,0.6c0,0.2,0,0.3,0,0.4c0,2,0,4,0,5.9c0,0.6-0.1,0.6-0.7,0.7
		c-0.1,0-0.1,0-0.2,0c0,0.3,0,0.6,0,0.9c0,0.3-0.2,0.4-0.4,0.4c-0.1,0-0.3,0-0.5,0c0,0.2,0,0.3,0,0.4c0,0.5,0,1,0,1.5
		c0,0.2,0,0.4-0.2,0.4c-0.3,0-0.2-0.2-0.2-0.4c0-0.3,0-0.5,0-0.8c0-0.3,0-0.7,0-1.1c-0.2,0-0.3,0-0.4,0c-0.3,0-0.4-0.1-0.5-0.5
		c0-0.2,0-0.4,0-0.6c0-0.2-0.1-0.3-0.3-0.3c-0.5,0-0.6-0.1-0.6-0.6c0-2,0-4,0-6.1c0-0.2,0-0.4-0.2-0.4c-0.1,0-0.1-0.2-0.1-0.3
		c0-0.4,0-0.8,0-1.2c0-0.3-0.1-0.4-0.4-0.4c-5.7,0-11.3,0-17,0c-0.3,0-0.4,0.1-0.4,0.4c0,5.3,0,10.6,0,15.9c0,0.9,0.2,1.7,0.6,2.4
		c1.1,1.9,2.7,2.8,4.9,2.8c3.1,0,6.1,0,9.2,0c0.1,0,0.2,0,0.3,0c0-0.1,0-0.1,0-0.1c-0.1,0-0.1-0.1-0.2-0.1c-1.4-0.8-2.6-1.9-3.6-3.1
		c-0.2-0.2-0.3-0.4-0.1-0.7c0.1-0.3,0.4-0.3,0.7-0.3c0.2,0,0.4,0.1,0.5,0c0.5-0.2,1-0.3,1.5-0.6c0.5-0.3,1-0.7,1.5-1.1
		c1.3-1,2.6-1.2,4.1-0.5c0.1,0,0.1,0,0.3,0.1c0-0.9,0-1.7,0-2.5c0.4,0,0.7,0,1.1,0c0,0.4,0,0.7,0,1c0,0.3,0,0.7,0,1
		c0,0.3-0.1,0.6-0.2,0.9c-0.2,0.7-0.9,1-1.6,0.6c-0.9-0.5-1.7-0.5-2.6,0c-0.3,0.2-0.5,0.4-0.7,0.5c-0.8,0.6-1.6,1.2-2.6,1.5
		c0,0-0.1,0.1-0.1,0.1c1.1,1.1,2.3,2,3.8,2.5c1.3,0.4,2.5,0.2,3.5-0.7c0.2-0.2,0.4-0.4,0.6-0.6c-0.2,0-0.2,0-0.3,0
		c-1.4,0.3-2.8,0.2-4.2-0.2c-0.2-0.1-0.4-0.2-0.5-0.4c-0.1-0.5,0.2-0.7,0.7-0.6c0.7,0.1,1.3,0.2,2,0.3c1.5,0.1,2.9-0.3,4.2-0.9
		c0.3-0.1,0.6,0,0.8,0.2c0.1,0.3,0,0.6-0.3,0.8c-0.2,0.1-0.3,0.1-0.5,0.2c-0.3,0.1-0.5,0.3-0.6,0.5c-0.4,0.7-0.9,1.3-1.5,1.8
		C30.5,48.8,30.4,48.9,30.2,49z M32.5,26.4c0.2,0,0.3,0,0.4,0c5.4,0,10.8,0,16.2,0c0.3,0,0.4-0.1,0.4-0.4c0-2.6,0-5.2,0-7.8
		c0-0.4-0.1-0.9-0.2-1.3c-0.6-2.5-2.7-4.1-5.3-4.1c-9.5,0-19.1,0-28.6,0c-0.3,0-0.5,0-0.8,0.1c-2.7,0.4-4.6,2.6-4.6,5.3
		c0,2.6,0,5.2,0,7.8c0,0.4,0,0.4,0.4,0.4c5.5,0,11.1,0,16.6,0c0.7,0,0.6,0.1,0.6-0.6c0-0.2,0-0.5,0.3-0.5c0,0,0.1-0.1,0.1-0.2
		c0-0.5,0-1,0-1.6c0-0.2-0.1-0.2-0.2-0.2c-0.3,0-0.5,0-0.8,0c-0.4,0-0.6-0.2-0.6-0.5c0-0.4,0.2-0.7,0.6-0.7c0.6,0,1.2,0,1.8,0
		c0.2,0,0.3,0,0.3-0.2c0-1.3,0-2.5,0-3.8c0-0.1-0.1-0.2-0.2-0.2c-0.2,0-0.4,0-0.7,0c-0.3,0-0.4-0.2-0.4-0.5c0-0.3,0.1-0.4,0.4-0.4
		c1.2,0,2.5,0,3.7,0c0.3,0,0.4,0.2,0.4,0.4c0,0.3-0.1,0.4-0.4,0.5c-0.2,0-0.4,0-0.6,0c-0.3,0-0.3,0.1-0.3,0.3c0,1.2,0,2.4,0,3.6
		c0,0.2,0.1,0.3,0.3,0.3c0.6,0,1.2,0,1.8,0c0.4,0,0.7,0.5,0.5,0.9c-0.1,0.3-0.4,0.3-0.6,0.4c-0.3,0-0.6,0-0.9,0c0,0.7,0,1.4,0,2
		c0.3,0,0.4,0.2,0.4,0.5C32.5,25.9,32.5,26.1,32.5,26.4z M29.6,34.1c0,0,0,0.1,0,0.1c-0.2,0-0.4,0-0.6,0c-0.2,0-0.2,0.1-0.2,0.2
		c0,0.3,0,0.6,0,0.9c0,0.3,0.1,0.3,0.3,0.3c0.6,0,1.3,0,1.9,0c0.4,0,0.4,0,0.4-0.4c0-1.6,0-3.2,0-4.8c0-2.3,0-4.6,0-6.9
		c0-0.3-0.1-0.4-0.3-0.3c-0.5,0-0.9,0-1.4,0c-0.3,0-0.7-0.1-0.9,0.1c-0.2,0.2,0,0.6-0.1,0.9c0,0.2,0.1,0.3,0.3,0.3
		c0.3,0,0.5,0,0.8,0c0,0,0,0.1,0,0.1c-0.3,0-0.5,0-0.8,0c-0.2,0-0.3,0.1-0.3,0.3c0,0.3,0,0.5,0,0.8c0,0.3,0.1,0.4,0.4,0.4
		c0.4,0,0.8,0,1.2,0c0,0,0,0.1,0,0.1c-0.1,0-0.2,0-0.2,0c-0.4,0-0.7,0-1.1,0c-0.2,0-0.3,0-0.3,0.3c0,0.4,0,0.8,0,1.2
		c0,0.2,0.1,0.3,0.3,0.3c0.3,0,0.6,0,0.8,0c0,0,0,0.1,0,0.1c-0.3,0-0.5,0-0.8,0c-0.2,0-0.4,0.1-0.3,0.3c0,0.2,0,0.4,0,0.7
		c0,0.3,0.1,0.4,0.3,0.3c0.3,0,0.7,0,1,0c0,0,0,0.1,0,0.1c-0.4,0-0.9,0-1.3,0c0,0.5,0,0.9,0,1.3c0.3,0,0.6,0,0.9,0c0,0,0,0.1,0,0.1
		c-0.2,0-0.4,0-0.6,0c-0.2,0-0.3,0.1-0.3,0.3c0,0.3,0,0.5,0,0.8c0,0.5,0,0.5,0.5,0.5c0.3,0,0.6,0,0.9,0c0,0,0,0.1,0,0.1
		c-0.4,0-0.9,0-1.3,0c0,0.6,0,1.1,0,1.7C29,34.1,29.3,34.1,29.6,34.1z M29.5,19.9c0,0.5,0,0.9,0,1.4c0,0.8-0.2,0.7,0.8,0.8
		c0.3,0,0.4-0.1,0.4-0.4c0-1,0-2,0-3c0-0.8,0-0.8-0.8-0.8c-0.2,0-0.3,0.1-0.3,0.3C29.5,18.7,29.5,19.3,29.5,19.9z M29.6,36.4
		c0,0.2,0,0.4,0,0.6c0.2,0,0.4,0,0.6,0c0.3,0,0.3-0.1,0.3-0.4c0-0.3-0.1-0.3-0.3-0.3C30,36.4,29.8,36.4,29.6,36.4z"/>
	<path class="st0" d="M4.3,10.7C4.5,8,5.8,5.9,8.2,4.5c1.1-0.7,2.4-1,3.7-1.1c0.2,0,0.5,0,0.7,0c0.5,0,0.7,0.2,0.7,0.6
		c0,0.4-0.2,0.6-0.7,0.6c-1.9,0-3.7,0.6-5.1,1.9c-1.1,1.1-1.8,2.4-1.9,3.9c0,0.1,0,0.3-0.1,0.4c0,0.5-0.3,0.7-0.7,0.7
		c-0.4,0-0.6-0.2-0.6-0.7C4.3,10.8,4.3,10.8,4.3,10.7z"/>
	<path class="st1" d="M30.9,33.7c0-1.7,0-3.3,0-5c0,0,0,0,0,0C30.9,30.4,30.9,32.1,30.9,33.7C30.9,33.7,30.9,33.7,30.9,33.7z"/>
	<path class="st1" d="M30.3,20.3c0-0.5,0-1,0-1.6c0,0,0,0,0,0C30.3,19.2,30.3,19.7,30.3,20.3C30.3,20.3,30.3,20.3,30.3,20.3z"/>
</g>
</svg>
