<?xml version="1.0" encoding="utf-8"?>
<!-- Generator: Adobe Illustrator 21.1.0, SVG Export Plug-In . SVG Version: 6.00 Build 0)  -->
<svg version="1.1" id="Layer_1" xmlns="http://www.w3.org/2000/svg" xmlns:xlink="http://www.w3.org/1999/xlink" x="0px" y="0px"
	 viewBox="0 0 60 60" style="enable-background:new 0 0 60 60;" xml:space="preserve">
<style type="text/css">
	.st0{fill-rule:evenodd;clip-rule:evenodd;fill:#F15B25;}
</style>
<path class="st0" d="M60.1,38.5c-0.1,0.1-0.2,0.3-0.2,0.4c-0.5,1.4-1.4,2.3-2.9,2.6c-0.4,0.1-0.7,0.1-1.1,0.1c-3,0-5.9,0-8.9,0
	c-0.4,0-0.4,0-0.5,0.5c0,0.5,0,0.9,0,1.4c-0.6,0-1.1,0-1.7,0c-0.1,0-0.2-0.2-0.2-0.3c0-0.4,0-0.8,0-1.2c0-0.3-0.1-0.5-0.4-0.4
	c-0.1,0-0.3,0-0.4,0c-0.6,0-0.8,0.1-1,0.7c-0.2,0.6-0.5,1.3-0.7,1.9c-0.5,1-1.1,2-1.9,2.9c-0.4,0.4-0.4,0.8-0.2,1.4
	c2,4.9-0.9,10.4-6.1,11.5c-0.6,0.1-1.2,0.2-1.7,0.2c-6.3,0-12.6,0-18.8,0c-1.6,0-3.3,0-4.9,0c-3.2,0-5.5-1.4-7.2-4.1
	c-0.6-1.1-1-2.2-1.2-3.4c-0.2-1.7,0.1-3.3,0.9-4.8c1-1.8,2.1-3.6,3.2-5.4c3-4.9,6-9.9,9-14.8c0.2-0.4,0.4-0.8,0.4-1.3
	c0-7.9,0-15.7,0-23.6c0-0.1,0-0.2,0-0.3c0-0.3-0.1-0.3-0.4-0.3c-1,0-2.1,0-3.1,0c-0.3,0-0.4-0.1-0.4-0.4c0-0.5,0-1-0.1-1.5
	c7.1,0,14.2,0,21.3,0c0,0.6,0,1.2,0,1.9c-0.1,0-0.2,0-0.4,0c-1,0-2,0-3,0c-0.3,0-0.4,0.1-0.4,0.4c0,4.3,0,8.5,0,12.8
	c0,2.6,0,5.2,0,7.7c0,0.1,0,0.3,0,0.4c0.2,0,0.5,0,0.7,0c2.6-0.2,5.2,0.3,7.6,1.4c0.3,0.1,0.4,0.1,0.6-0.2c0.7-1.2,1.5-2.4,2.3-3.6
	c0.2-0.3,0.2-0.6,0.1-0.9c-0.1-0.3-0.2-0.5-0.3-0.8c-0.6-1.6,0.6-3.6,2.4-3.7c2-0.1,3.1,1.4,3.2,2.8c0,0.3,0.2,0.5,0.5,0.7
	c1.3,0.6,2.6,1.3,3.9,1.9c0.2,0.1,0.5,0.1,0.8,0c0.6-0.2,1.1-0.4,1.7-0.6c0.3-0.1,0.5-0.3,0.6-0.6c0.7-1.5,1.4-3,2.1-4.5
	c0.6-1.3,1.2-2.6,1.8-3.8c0.2-0.4,0.2-0.8-0.1-1.2c-1.1-1.7-0.1-4,1.9-4.3c1.3-0.2,2.4,0.3,3.1,1.5C59.8,7.6,60,7.8,60.1,8
	c0,0.5,0,0.9,0,1.4c-0.1,0.1-0.2,0.2-0.2,0.3c-0.5,1.1-1.3,1.7-2.5,1.8c-0.4,0-0.6,0.2-0.8,0.6c-1.3,2.9-2.6,5.7-3.9,8.6
	c-0.2,0.3-0.1,0.6,0.1,1c0.5,0.7,0.6,1.4,0.4,2.2c-0.3,1.2-1,1.9-2.2,2.2c-1.1,0.2-2.1,0-2.8-0.9c-0.4-0.5-0.6-1.2-0.7-1.9
	c0-0.2-0.1-0.4-0.2-0.5c-1.4-0.7-2.8-1.4-4.2-2.1c-0.1-0.1-0.3-0.1-0.4,0c-0.7,0.2-1.4,0.5-2.2,0.7c-0.2,0.1-0.4,0.2-0.5,0.4
	c-0.8,1.3-1.6,2.6-2.4,3.8c-0.1,0.2-0.1,0.4,0.1,0.5c1.1,0.8,2.1,1.8,2.9,2.9c1,1.3,1.8,2.8,2.3,4.4c0.2,0.5,0.3,0.6,0.7,0.6
	c0.2,0,0.5,0,0.7,0c0.3,0,0.3-0.1,0.3-0.3c0-0.4,0-0.9,0-1.3c0-0.2,0-0.3,0.3-0.3c0.5,0,0.9,0,1.4,0c0.2,0,0.3,0.1,0.3,0.3
	c0,0.4,0,0.8,0,1.2c0,0.3,0.1,0.4,0.4,0.4c3.1,0,6.1,0,9.2,0c1.8,0,3.1,0.9,3.8,2.6c0.1,0.2,0.1,0.3,0.2,0.5
	C60.1,37.5,60.1,38,60.1,38.5z M38.3,49c-0.2,0.1-0.3,0.2-0.4,0.3c-1.1,0.8-2.3,1.4-3.6,2c-2.4,1-5,1.3-7.6,0.9
	c-1.8-0.3-3.5-1-5.1-1.9c-2.7-1.6-4.8-3.8-6-6.8c-0.9-2.3-1.2-4.6-1.1-7c0-0.2,0-0.4,0-0.6c-0.1,0-0.3,0-0.4,0c-1.1,0-2.1,0-3.2,0
	c-0.5,0-0.8,0.2-1,0.5c-0.7,1.2-1.5,2.4-2.2,3.6c-1.7,2.8-3.3,5.5-5,8.3c-1,1.7-1.2,3.5-0.6,5.3c0.9,2.6,3.4,4.5,6.2,4.5
	c1.5,0,3,0,4.5,0c6.4,0,12.8,0,19.1,0c0.7,0,1.4-0.1,2.1-0.3c3-0.9,5-4.2,4.5-7.3C38.6,50,38.5,49.6,38.3,49z M11.6,33.9
	c0.2,0,0.3,0,0.4,0c0.8,0,1.6,0,2.4,0c0.6,0,0.8-0.1,1-0.7c0.9-2.6,2.3-4.8,4.4-6.6c1.4-1.2,3.1-2,4.8-2.7c0.6-0.2,0.7-0.3,0.7-0.8
	c0-6.9,0-13.8,0-20.7c0-0.5,0-0.5-0.5-0.5c-2.9,0-5.8,0-8.7,0c-0.5,0-0.5,0-0.5,0.5c0,8,0,15.9,0,23.9c0,0.7-0.2,1.3-0.5,2
	c-1.1,1.7-2.1,3.5-3.1,5.2C11.7,33.6,11.7,33.7,11.6,33.9z M32.6,29.8c-3.5-1.8-8.8-0.7-11.2,3.7c-2.4,4.4-0.6,10,3.9,12.1
	c4.6,2.2,10,0,11.9-4.7c1.7-4.3-0.5-8.7-3-10c-0.1,0.1-0.1,0.2-0.2,0.3c-0.9,1.4-1.8,2.9-2.7,4.3c-0.1,0.2-0.2,0.4,0,0.6
	c0.5,0.7,0.7,1.5,0.5,2.3c-0.4,1.6-1.9,2.6-3.5,2.2c-1.6-0.4-2.5-1.8-2.1-3.5c0.3-1.2,1.4-2.1,2.7-2.2c0.4,0,0.6-0.1,0.8-0.5
	c0.4-0.7,0.9-1.4,1.3-2.1C31.6,31.5,32.1,30.7,32.6,29.8z M34.7,26.6c-4.3-2.5-11.8-2-15.9,3.9c-4.2,6-2.5,14.2,3.6,17.9
	c6.2,3.8,14.3,1.7,17.7-4.7c3.3-6.2,0.7-13.2-3.8-16.1c0,0-0.1,0-0.1,0.1c-0.2,0.4-0.4,0.7-0.7,1.1c-0.2,0.3-0.2,0.4,0.1,0.7
	c3.2,2.8,4.6,6.2,3.8,10.4c-1.2,6.2-7.2,9.5-12.6,8.3c-5.4-1.1-9.1-6.4-8.3-11.9c0.6-3.8,2.6-6.5,6.1-8.2c1.9-0.9,3.9-1.2,5.9-0.8
	c0.9,0.2,1.9,0.5,2.8,0.8c0.1,0,0.3,0,0.4,0C34.1,27.5,34.4,27.1,34.7,26.6z M51.7,35.8C51.7,35.8,51.7,35.8,51.7,35.8
	c-1.6,0-3.1,0-4.7,0c-0.3,0-0.4,0.1-0.4,0.4c0,1,0,2.1,0,3.1c0,0.3,0.1,0.4,0.4,0.4c3.1,0,6.3,0,9.4,0c1.1,0,1.9-0.8,1.9-2
	c0-1-0.8-1.9-1.9-1.9C54.7,35.8,53.2,35.8,51.7,35.8z M43.6,35.9c0,1,0,2.1,0,3.1c0,0.8-0.2,0.7,0.7,0.7c0.2,0,0.3-0.1,0.3-0.3
	c0-0.9,0-1.8,0-2.7c0-0.9,0-0.9-0.9-0.8C43.7,35.8,43.6,35.8,43.6,35.9z M39.8,18.3c0,0.5,0.4,1,0.9,1c0.5,0,1-0.5,1-1
	c0-0.5-0.5-1-1-1C40.2,17.4,39.8,17.8,39.8,18.3z M58.1,8.7c0-0.5-0.4-1-0.9-1c-0.5,0-1,0.5-1,1c0,0.5,0.4,1,1,1
	C57.7,9.7,58.1,9.2,58.1,8.7z M30,37.7c0-0.5-0.4-1-1-1c-0.5,0-1,0.4-1,1c0,0.5,0.4,1,1,1C29.6,38.7,30,38.3,30,37.7z M50.4,22.2
	c-0.5,0-1,0.5-1,1c0,0.5,0.5,1,1,1c0.5,0,0.9-0.4,0.9-1C51.4,22.7,50.9,22.2,50.4,22.2z"/>
</svg>
