<?xml version="1.0" encoding="utf-8"?>
<!-- Generator: Adobe Illustrator 21.1.0, SVG Export Plug-In . SVG Version: 6.00 Build 0)  -->
<svg version="1.1" id="Layer_1" xmlns="http://www.w3.org/2000/svg" xmlns:xlink="http://www.w3.org/1999/xlink" x="0px" y="0px"
	 viewBox="0 0 340 340" style="enable-background:new 0 0 340 340;" xml:space="preserve">
<style type="text/css">
	.st0{fill:#FFFFFF;stroke:#000000;stroke-linecap:round;stroke-miterlimit:10;}
	.st1{fill-rule:evenodd;clip-rule:evenodd;fill:none;}
	.st2{fill-rule:evenodd;clip-rule:evenodd;}
	.st3{fill-rule:evenodd;clip-rule:evenodd;fill:#D65429;}
	.st4{fill:#4EA346;}
</style>
<circle class="st0" cx="170" cy="170" r="170"/>
<g>
	<circle class="st1" cx="170.1" cy="170.1" r="169.9"/>
	<g>
		<g>
			<path class="st2" d="M237.4,194.3c0-11,0-22,0-33c0-4.8,1.2-6,6-6c7.8,0,15.6,0,23.3,0.2c10.1,0.2,19.3,3,26.6,10.4
				c4,4,6.3,9,7.7,14.5c2.4,9.2,2.4,18.4,0,27.6c-3.5,13.6-12.2,21.9-26,24.5c-4.9,0.9-9.9,1.2-14.8,1.4c-5.5,0.2-11.1,0.1-16.6,0
				c-4.8,0-6.2-1.4-6.2-6.1C237.4,216.6,237.4,205.4,237.4,194.3z M253.1,194.4c0,7.9,0,15.7,0,23.6c0,2.2,0.8,3.1,3,3
				c2.7-0.1,5.5,0.1,8.2-0.1c10.4-0.5,16.9-5.1,19.9-14.1c2.8-8.4,2.8-16.9-0.2-25.2c-2.2-6.1-6.2-10.7-12.5-12.2
				c-4.9-1.2-10.1-1.3-15.2-1.6c-2.3-0.2-3.1,1.5-3.1,3.7C253.2,179,253.1,186.7,253.1,194.4z"/>
			<path class="st3" d="M127.4,198.1c-2.1,0-4.2-0.1-6.2,0c-2.1,0.2-3.2,1.5-2.8,3.6c2.3,13.1,12.9,20,24.8,17c3.5-0.9,6.7-3,10-4.4
				c1.1-0.5,2.6-1.2,3.5-0.8c0.8,0.4,1.2,2,1.6,3.2c0.2,0.6,0.1,1.3,0.1,1.9c0.1,7.4-0.4,8.3-7.4,11.1c-10.8,4.2-21.7,3.9-32.2-0.9
				c-7.9-3.6-13-9.9-15.4-18.1c-3.3-11-3.5-22.2-0.4-33.2c5.3-18.9,20.2-26.1,37.1-25.5c4.6,0.2,9,1.3,13.1,3.5
				c4.8,2.6,6.9,8.9,4.9,13.9c-1,2.5-2,2.7-4.1,1.2c-5.7-4-11.9-6.3-18.9-5.3c-8.7,1.2-17.3,11.6-17.1,20.4c0.1,2.3,1,3.1,3.2,3.1
				c3.8-0.1,7.7,0,11.5,0c2.1,0,3,0.9,3.1,3c0.3,6.1,0.2,6.2-5.8,6.2c-0.8,0-1.6,0-2.4,0C127.4,198,127.4,198.1,127.4,198.1z"/>
			<path class="st3" d="M226.5,192.9c0.1,7-0.4,13.3-2.8,19.4c-3.5,9.1-9.7,15.4-19.1,18.2c-10.6,3.2-21.1,3.1-31.2-2.3
				c-2.8-1.5-4.3-3.4-4.1-6.6c0.1-1.7-0.1-3.4,0.1-5c0.3-3.4,2.2-4.3,4.8-2.3c3.9,3.1,8.4,4.6,13.3,5.1c11,1.1,20-6,21.8-18.1
				c0.3-2-1-3.1-3-3.2c-3.6-0.1-7.2-0.1-10.8-0.1c-3,0-3.3-0.3-3.4-3.3c0-0.6,0-1.1,0-1.7c-0.1-3.6,0.5-4.2,4-4.2
				c3.5,0,7.1,0,10.6,0c2.7,0,3.2-0.6,3.3-3.2c0.1-9-10.1-22.4-22.8-20.2c-4.9,0.8-9.2,2.5-13.2,5.4c-2.2,1.6-3.4,1.2-4.3-1.3
				c-1.7-4.6,0.3-11.4,5.4-14c18.4-9.5,42.4,0.2,49.2,20.1C226,181.3,226.8,187.3,226.5,192.9z"/>
			<path class="st2" d="M58.6,233.1c-4.2-0.7-8.4-1-12.5-2.1c-6.9-1.8-9.6-6.5-8.5-13.5c0.6-3.9,2.8-4.8,6.1-2.5
				c6.1,4.1,12.8,5.7,20.1,4.4c6.1-1.1,9.9-6.4,8.3-11.6c-0.8-2.8-2.9-4.5-5.4-5.8c-3.9-2-8-3.7-11.8-6c-3.8-2.3-7.8-4.7-10.8-7.9
				c-10.8-11.7-4.8-30.6,11-35.4c8.1-2.4,16.2-1.7,24,1.4c4.7,1.9,7.1,7.8,5.4,12.6c-0.9,2.5-3.1,3.1-5.7,1.3
				c-4.6-3.1-9.8-4-15.1-3.7c-5.7,0.3-9.1,4.7-8,9.9c0.5,2.4,2,4.2,4.2,5.3c4.7,2.5,9.6,4.9,14.3,7.4c2.8,1.5,5.7,3.1,8,5.2
				c11.1,10,8.6,28.9-4.8,36.5C71.6,232.1,65.3,233.3,58.6,233.1z"/>
		</g>
		<path class="st4" d="M161,158.1c0,0,7.1-18,9.1-20.4c2-2.4-0.1-6.4,0-7.1c0.1-0.6-6.3-21.8,25.1-39.5c0,0,35.9-11.2,41.7-28.2
			c0,0,2.1,36.6-12.2,56.8c-17,23.9-39.7,20.9-47.3,19.7c-7.6-1.2-8.5,8.2-9.8,10.4c-1.3,2.2-1.6,9.6-1.6,9.6S162.7,160.8,161,158.1
			z"/>
	</g>
</g>
</svg>
