<?xml version="1.0" encoding="utf-8"?>
<!-- Generator: Adobe Illustrator 21.1.0, SVG Export Plug-In . SVG Version: 6.00 Build 0)  -->
<svg version="1.1" id="Layer_1" xmlns="http://www.w3.org/2000/svg" xmlns:xlink="http://www.w3.org/1999/xlink" x="0px" y="0px"
	 viewBox="0 0 250 250" style="enable-background:new 0 0 250 250;" xml:space="preserve">
<style type="text/css">
	.st0{fill:#FFFFFF;stroke:#231F20;stroke-width:0.5;stroke-miterlimit:10;}
	.st1{fill:none;}
	.st2{fill:#231F20;}
	.st3{font-family:'OpenSans';}
	.st4{font-size:5.496px;}
</style>
<g>
	<path class="st0" d="M237.5,201.1H12.8V62c12.1-12.7,0,0,12.1-12.7l212.6,0.3V201.1z"/>
	<circle class="st0" cx="33.4" cy="69.9" r="6"/>
	<circle class="st0" cx="50.7" cy="69.9" r="6"/>
	<circle class="st0" cx="68" cy="69.9" r="6"/>
	<circle class="st0" cx="85.3" cy="69.9" r="6"/>
	<circle class="st0" cx="102.6" cy="69.9" r="6"/>
	<circle class="st0" cx="119.9" cy="69.9" r="6"/>
	<circle class="st0" cx="137.2" cy="69.9" r="6"/>
	<circle class="st0" cx="154.5" cy="69.9" r="6"/>
	<circle class="st0" cx="171.9" cy="69.9" r="6"/>
	<circle class="st0" cx="189.2" cy="69.9" r="6"/>
	<circle class="st0" cx="206.5" cy="69.9" r="6"/>
	<circle class="st0" cx="223.8" cy="69.9" r="6"/>
	<circle class="st0" cx="33.3" cy="86.9" r="6"/>
	<circle class="st0" cx="50.6" cy="86.9" r="6"/>
	<circle class="st0" cx="67.9" cy="86.9" r="6"/>
	<circle class="st0" cx="85.2" cy="86.9" r="6"/>
	<circle class="st0" cx="102.6" cy="86.9" r="6"/>
	<circle class="st0" cx="119.9" cy="86.9" r="6"/>
	<circle class="st0" cx="137.2" cy="86.9" r="6"/>
	<circle class="st0" cx="154.5" cy="86.9" r="6"/>
	<circle class="st0" cx="171.8" cy="86.9" r="6"/>
	<circle class="st0" cx="189.1" cy="86.9" r="6"/>
	<circle class="st0" cx="206.4" cy="86.9" r="6"/>
	<circle class="st0" cx="223.7" cy="86.9" r="6"/>
	<circle class="st0" cx="33.3" cy="103.9" r="6"/>
	<circle class="st0" cx="50.6" cy="103.9" r="6"/>
	<circle class="st0" cx="67.9" cy="103.9" r="6"/>
	<circle class="st0" cx="85.3" cy="103.9" r="6"/>
	<circle class="st0" cx="102.6" cy="103.9" r="6"/>
	<circle class="st0" cx="119.9" cy="103.9" r="6"/>
	<circle class="st0" cx="137.2" cy="103.9" r="6"/>
	<circle class="st0" cx="154.5" cy="103.9" r="6"/>
	<circle class="st0" cx="171.8" cy="103.9" r="6"/>
	<circle class="st0" cx="189.1" cy="103.9" r="6"/>
	<circle class="st0" cx="206.4" cy="103.9" r="6"/>
	<circle class="st0" cx="223.7" cy="103.9" r="6"/>
	<circle class="st0" cx="33.3" cy="121" r="6"/>
	<circle class="st0" cx="50.6" cy="121" r="6"/>
	<circle class="st0" cx="67.9" cy="121" r="6"/>
	<circle class="st0" cx="85.3" cy="121" r="6"/>
	<circle class="st0" cx="102.6" cy="121" r="6"/>
	<circle class="st0" cx="119.9" cy="121" r="6"/>
	<circle class="st0" cx="137.2" cy="121" r="6"/>
	<circle class="st0" cx="154.5" cy="121" r="6"/>
	<circle class="st0" cx="171.8" cy="121" r="6"/>
	<circle class="st0" cx="189.1" cy="121" r="6"/>
	<circle class="st0" cx="206.4" cy="121" r="6"/>
	<circle class="st0" cx="223.7" cy="121" r="6"/>
	<circle class="st0" cx="33.5" cy="138" r="6"/>
	<circle class="st0" cx="50.8" cy="138" r="6"/>
	<circle class="st0" cx="68.1" cy="138" r="6"/>
	<circle class="st0" cx="85.4" cy="138" r="6"/>
	<circle class="st0" cx="102.7" cy="138" r="6"/>
	<circle class="st0" cx="120" cy="138" r="6"/>
	<circle class="st0" cx="137.4" cy="138" r="6"/>
	<circle class="st0" cx="154.7" cy="138" r="6"/>
	<circle class="st0" cx="172" cy="138" r="6"/>
	<circle class="st0" cx="189.3" cy="138" r="6"/>
	<circle class="st0" cx="206.6" cy="138" r="6"/>
	<circle class="st0" cx="223.9" cy="138" r="6"/>
	<circle class="st0" cx="33.4" cy="155.1" r="6"/>
	<circle class="st0" cx="50.7" cy="155.1" r="6"/>
	<circle class="st0" cx="68" cy="155.1" r="6"/>
	<circle class="st0" cx="85.4" cy="155.1" r="6"/>
	<circle class="st0" cx="102.7" cy="155.1" r="6"/>
	<circle class="st0" cx="120" cy="155.1" r="6"/>
	<circle class="st0" cx="137.3" cy="155.1" r="6"/>
	<circle class="st0" cx="154.6" cy="155.1" r="6"/>
	<circle class="st0" cx="171.9" cy="155.1" r="6"/>
	<circle class="st0" cx="189.2" cy="155.1" r="6"/>
	<circle class="st0" cx="206.5" cy="155.1" r="6"/>
	<circle class="st0" cx="223.8" cy="155.1" r="6"/>
	<circle class="st0" cx="33.4" cy="172.1" r="6"/>
	<circle class="st0" cx="50.7" cy="172.1" r="6"/>
	<circle class="st0" cx="68.1" cy="172.1" r="6"/>
	<circle class="st0" cx="85.4" cy="172.1" r="6"/>
	<circle class="st0" cx="102.7" cy="172.1" r="6"/>
	<circle class="st0" cx="120" cy="172.1" r="6"/>
	<circle class="st0" cx="137.3" cy="172.1" r="6"/>
	<circle class="st0" cx="154.6" cy="172.1" r="6"/>
	<circle class="st0" cx="171.9" cy="172.1" r="6"/>
	<circle class="st0" cx="189.2" cy="172.1" r="6"/>
	<circle class="st0" cx="206.5" cy="172.1" r="6"/>
	<circle class="st0" cx="223.8" cy="172.1" r="6"/>
	<circle class="st0" cx="33.4" cy="189.1" r="6"/>
	<circle class="st0" cx="50.7" cy="189.1" r="6"/>
	<circle class="st0" cx="68.1" cy="189.1" r="6"/>
	<circle class="st0" cx="85.4" cy="189.1" r="6"/>
	<circle class="st0" cx="102.7" cy="189.1" r="6"/>
	<circle class="st0" cx="120" cy="189.1" r="6"/>
	<circle class="st0" cx="137.3" cy="189.1" r="6"/>
	<circle class="st0" cx="154.6" cy="189.1" r="6"/>
	<circle class="st0" cx="171.9" cy="189.1" r="6"/>
	<circle class="st0" cx="189.2" cy="189.1" r="6"/>
	<circle class="st0" cx="206.5" cy="189.1" r="6"/>
	<circle class="st0" cx="223.8" cy="189.1" r="6"/>
	<rect x="18.6" y="63.9" class="st1" width="6" height="11.9"/>
	<text transform="matrix(1 0 0 1 19.8793 72.0332)" class="st2 st3 st4">A</text>
	<rect x="18.6" y="80.9" class="st1" width="6" height="11.9"/>
	<text transform="matrix(1 0 0 1 19.8378 89.0742)" class="st2 st3 st4">B</text>
	<rect x="18.6" y="98" class="st1" width="6" height="11.9"/>
	<text transform="matrix(1 0 0 1 19.8847 106.1152)" class="st2 st3 st4">C</text>
	<rect x="18.6" y="115" class="st1" width="6" height="11.9"/>
	<text transform="matrix(1 0 0 1 19.6152 123.1553)" class="st2 st3 st4">D</text>
	<rect x="18.6" y="132.1" class="st1" width="6" height="11.9"/>
	<text transform="matrix(1 0 0 1 20.0903 140.1958)" class="st2 st3 st4">E</text>
	<rect x="18.6" y="149.1" class="st1" width="6" height="11.9"/>
	<text transform="matrix(1 0 0 1 20.2001 157.2368)" class="st2 st3 st4">F</text>
	<rect x="18.6" y="166.1" class="st1" width="6" height="11.9"/>
	<text transform="matrix(1 0 0 1 19.6176 174.2778)" class="st2 st3 st4">G</text>
	<rect x="18.6" y="183.2" class="st1" width="6" height="11.9"/>
	<text transform="matrix(1 0 0 1 19.5907 191.3188)" class="st2 st3 st4">H</text>
	<rect x="30.3" y="55.8" class="st1" width="6" height="6"/>
	<text transform="matrix(1 0 0 1 31.749 60.4692)" class="st2 st3 st4">1</text>
	<rect x="47.7" y="55.8" class="st1" width="6" height="6"/>
	<text transform="matrix(1 0 0 1 49.0571 60.4692)" class="st2 st3 st4">2</text>
	<rect x="65" y="55.8" class="st1" width="6" height="6"/>
	<text transform="matrix(1 0 0 1 66.4404 60.4692)" class="st2 st3 st4">3</text>
	<rect x="82.3" y="55.8" class="st1" width="6" height="6"/>
	<text transform="matrix(1 0 0 1 83.6728 60.4692)" class="st2 st3 st4">4</text>
	<rect x="99.7" y="55.8" class="st1" width="6" height="6"/>
	<text transform="matrix(1 0 0 1 101.0561 60.4692)" class="st2 st3 st4">5</text>
	<rect x="116.9" y="55.8" class="st1" width="6" height="6"/>
	<text transform="matrix(1 0 0 1 118.2885 60.4692)" class="st2 st3 st4">6</text>
	<rect x="134.2" y="55.8" class="st1" width="6" height="6"/>
	<text transform="matrix(1 0 0 1 135.5951 60.4692)" class="st2 st3 st4">7</text>
	<rect x="151.6" y="55.8" class="st1" width="6" height="6"/>
	<text transform="matrix(1 0 0 1 152.9789 60.4692)" class="st2 st3 st4">8</text>
	<rect x="168.8" y="55.8" class="st1" width="6" height="6"/>
	<text transform="matrix(1 0 0 1 170.2104 60.4692)" class="st2 st3 st4">9</text>
	<rect x="185.3" y="55.8" class="st1" width="7.5" height="6"/>
	<text transform="matrix(1 0 0 1 185.9574 60.4692)" class="st2 st3 st4">10</text>
	<rect x="202.9" y="55.8" class="st1" width="7.1" height="6"/>
	<text transform="matrix(1 0 0 1 203.3315 60.4692)" class="st2 st3 st4">11</text>
	<rect x="220.2" y="55.8" class="st1" width="7.2" height="6"/>
	<text transform="matrix(1 0 0 1 220.6391 60.4692)" class="st2 st3 st4">12</text>
</g>
</svg>
