<?xml version="1.0" encoding="utf-8"?>
<!-- Generator: Adobe Illustrator 21.1.0, SVG Export Plug-In . SVG Version: 6.00 Build 0)  -->
<svg version="1.1" id="Layer_1" xmlns="http://www.w3.org/2000/svg" xmlns:xlink="http://www.w3.org/1999/xlink" x="0px" y="0px"
	 viewBox="0 0 250 250" style="enable-background:new 0 0 250 250;" xml:space="preserve">
<style type="text/css">
	.st0{fill:#FFFFFF;stroke:#231F20;stroke-width:0.5;stroke-miterlimit:10;}
	.st1{fill:#D65329;stroke:#231F20;stroke-width:0.5;stroke-miterlimit:10;}
	.st2{fill:none;}
	.st3{fill:#231F20;}
	.st4{font-family:'OpenSans';}
	.st5{font-size:5.5243px;}
</style>
<g>
	<path class="st0" d="M238.7,201.2H12.8V61.4c12.2-12.8,0,0,12.2-12.8l213.7,0.3V201.2z"/>
	<circle class="st1" cx="34.3" cy="69.3" r="6"/>
	<circle class="st1" cx="51.7" cy="69.3" r="6"/>
	<circle class="st1" cx="69.1" cy="69.3" r="6"/>
	<circle class="st1" cx="86.5" cy="69.3" r="6"/>
	<circle class="st1" cx="103.9" cy="69.3" r="6"/>
	<circle class="st1" cx="121.3" cy="69.3" r="6"/>
	<circle class="st1" cx="138.7" cy="69.3" r="6"/>
	<circle class="st1" cx="156.1" cy="69.3" r="6"/>
	<circle class="st1" cx="173.5" cy="69.3" r="6"/>
	<circle class="st1" cx="190.9" cy="69.3" r="6"/>
	<circle class="st1" cx="208.3" cy="69.3" r="6"/>
	<circle class="st1" cx="225.7" cy="69.3" r="6"/>
	<circle class="st1" cx="34.3" cy="86.4" r="6"/>
	<circle class="st1" cx="51.7" cy="86.4" r="6"/>
	<circle class="st1" cx="69.1" cy="86.4" r="6"/>
	<circle class="st1" cx="86.5" cy="86.4" r="6"/>
	<circle class="st1" cx="103.8" cy="86.4" r="6"/>
	<circle class="st1" cx="121.2" cy="86.4" r="6"/>
	<circle class="st1" cx="138.6" cy="86.4" r="6"/>
	<circle class="st1" cx="156" cy="86.4" r="6"/>
	<circle class="st1" cx="173.4" cy="86.4" r="6"/>
	<circle class="st1" cx="190.8" cy="86.4" r="6"/>
	<circle class="st1" cx="208.2" cy="86.4" r="6"/>
	<circle class="st1" cx="225.6" cy="86.4" r="6"/>
	<circle class="st1" cx="34.3" cy="103.6" r="6"/>
	<circle class="st1" cx="51.7" cy="103.6" r="6"/>
	<circle class="st1" cx="69.1" cy="103.6" r="6"/>
	<circle class="st1" cx="86.5" cy="103.6" r="6"/>
	<circle class="st1" cx="103.9" cy="103.6" r="6"/>
	<circle class="st1" cx="121.3" cy="103.6" r="6"/>
	<circle class="st1" cx="138.7" cy="103.6" r="6"/>
	<circle class="st1" cx="156" cy="103.6" r="6"/>
	<circle class="st1" cx="173.4" cy="103.6" r="6"/>
	<circle class="st1" cx="190.8" cy="103.6" r="6"/>
	<circle class="st1" cx="208.2" cy="103.6" r="6"/>
	<circle class="st1" cx="225.6" cy="103.6" r="6"/>
	<circle class="st1" cx="34.3" cy="120.7" r="6"/>
	<circle class="st1" cx="51.7" cy="120.7" r="6"/>
	<circle class="st1" cx="69.1" cy="120.7" r="6"/>
	<circle class="st1" cx="86.5" cy="120.7" r="6"/>
	<circle class="st1" cx="103.9" cy="120.7" r="6"/>
	<circle class="st1" cx="121.3" cy="120.7" r="6"/>
	<circle class="st1" cx="138.7" cy="120.7" r="6"/>
	<circle class="st1" cx="156" cy="120.7" r="6"/>
	<circle class="st1" cx="173.4" cy="120.7" r="6"/>
	<circle class="st1" cx="190.8" cy="120.7" r="6"/>
	<circle class="st1" cx="208.2" cy="120.7" r="6"/>
	<circle class="st1" cx="225.6" cy="120.7" r="6"/>
	<circle class="st1" cx="34.4" cy="137.8" r="6"/>
	<circle class="st1" cx="51.8" cy="137.8" r="6"/>
	<circle class="st1" cx="69.2" cy="137.8" r="6"/>
	<circle class="st1" cx="86.6" cy="137.8" r="6"/>
	<circle class="st1" cx="104" cy="137.8" r="6"/>
	<circle class="st1" cx="121.4" cy="137.8" r="6"/>
	<circle class="st1" cx="138.8" cy="137.8" r="6"/>
	<circle class="st1" cx="156.2" cy="137.8" r="6"/>
	<circle class="st1" cx="173.6" cy="137.8" r="6"/>
	<circle class="st1" cx="191" cy="137.8" r="6"/>
	<circle class="st1" cx="208.4" cy="137.8" r="6"/>
	<circle class="st1" cx="225.8" cy="137.8" r="6"/>
	<circle class="st1" cx="34.4" cy="155" r="6"/>
	<circle class="st1" cx="51.8" cy="155" r="6"/>
	<circle class="st1" cx="69.2" cy="155" r="6"/>
	<circle class="st1" cx="86.6" cy="155" r="6"/>
	<circle class="st1" cx="104" cy="155" r="6"/>
	<circle class="st1" cx="121.4" cy="155" r="6"/>
	<circle class="st1" cx="138.8" cy="155" r="6"/>
	<circle class="st1" cx="156.2" cy="155" r="6"/>
	<circle class="st1" cx="173.5" cy="155" r="6"/>
	<circle class="st1" cx="190.9" cy="155" r="6"/>
	<circle class="st1" cx="208.3" cy="155" r="6"/>
	<circle class="st1" cx="225.7" cy="155" r="6"/>
	<circle class="st1" cx="34.4" cy="172.1" r="6"/>
	<circle class="st1" cx="51.8" cy="172.1" r="6"/>
	<circle class="st1" cx="69.2" cy="172.1" r="6"/>
	<circle class="st1" cx="86.6" cy="172.1" r="6"/>
	<circle class="st1" cx="104" cy="172.1" r="6"/>
	<circle class="st1" cx="121.4" cy="172.1" r="6"/>
	<circle class="st1" cx="138.8" cy="172.1" r="6"/>
	<circle class="st1" cx="156.2" cy="172.1" r="6"/>
	<circle class="st1" cx="173.6" cy="172.1" r="6"/>
	<circle class="st1" cx="191" cy="172.1" r="6"/>
	<circle class="st1" cx="208.4" cy="172.1" r="6"/>
	<circle class="st1" cx="225.8" cy="172.1" r="6"/>
	<circle class="st1" cx="34.4" cy="189.2" r="6"/>
	<circle class="st1" cx="51.8" cy="189.2" r="6"/>
	<circle class="st1" cx="69.2" cy="189.2" r="6"/>
	<circle class="st1" cx="86.6" cy="189.2" r="6"/>
	<circle class="st1" cx="104" cy="189.2" r="6"/>
	<circle class="st1" cx="121.4" cy="189.2" r="6"/>
	<circle class="st1" cx="138.8" cy="189.2" r="6"/>
	<circle class="st1" cx="156.2" cy="189.2" r="6"/>
	<circle class="st1" cx="173.6" cy="189.2" r="6"/>
	<circle class="st1" cx="191" cy="189.2" r="6"/>
	<circle class="st1" cx="208.4" cy="189.2" r="6"/>
	<circle class="st1" cx="225.8" cy="189.2" r="6"/>
	<rect x="19.5" y="63.3" class="st2" width="6" height="12"/>
	<text transform="matrix(1 0 0 1 20.75 71.5024)" class="st3 st4 st5">A</text>
	<rect x="19.5" y="80.4" class="st2" width="6" height="12"/>
	<text transform="matrix(1 0 0 1 20.7085 88.6309)" class="st3 st4 st5">B</text>
	<rect x="19.5" y="97.6" class="st2" width="6" height="12"/>
	<text transform="matrix(1 0 0 1 20.7554 105.7607)" class="st3 st4 st5">C</text>
	<rect x="19.5" y="114.7" class="st2" width="6" height="12"/>
	<text transform="matrix(1 0 0 1 20.4844 122.8896)" class="st3 st4 st5">D</text>
	<rect x="19.5" y="131.8" class="st2" width="6" height="12"/>
	<text transform="matrix(1 0 0 1 20.9619 140.0166)" class="st3 st4 st5">E</text>
	<rect x="19.5" y="149" class="st2" width="6" height="12"/>
	<text transform="matrix(1 0 0 1 21.0723 157.1455)" class="st3 st4 st5">F</text>
	<rect x="19.5" y="166.1" class="st2" width="6" height="12"/>
	<text transform="matrix(1 0 0 1 20.4873 174.2744)" class="st3 st4 st5">G</text>
	<rect x="19.5" y="183.2" class="st2" width="6" height="12"/>
	<text transform="matrix(1 0 0 1 20.46 191.4033)" class="st3 st4 st5">H</text>
	<rect x="31.3" y="55.1" class="st2" width="6" height="6"/>
	<text transform="matrix(1 0 0 1 32.6812 59.8789)" class="st3 st4 st5">1</text>
	<rect x="48.7" y="55.1" class="st2" width="6" height="6"/>
	<text transform="matrix(1 0 0 1 50.0781 59.8789)" class="st3 st4 st5">2</text>
	<rect x="66.1" y="55.1" class="st2" width="6" height="6"/>
	<text transform="matrix(1 0 0 1 67.5513 59.8789)" class="st3 st4 st5">3</text>
	<rect x="83.5" y="55.1" class="st2" width="6" height="6"/>
	<text transform="matrix(1 0 0 1 84.8726 59.8789)" class="st3 st4 st5">4</text>
	<rect x="100.9" y="55.1" class="st2" width="6" height="6"/>
	<text transform="matrix(1 0 0 1 102.3447 59.8789)" class="st3 st4 st5">5</text>
	<rect x="118.3" y="55.1" class="st2" width="6" height="6"/>
	<text transform="matrix(1 0 0 1 119.666 59.8789)" class="st3 st4 st5">6</text>
	<rect x="135.7" y="55.1" class="st2" width="6" height="6"/>
	<text transform="matrix(1 0 0 1 137.0635 59.8789)" class="st3 st4 st5">7</text>
	<rect x="153.1" y="55.1" class="st2" width="6" height="6"/>
	<text transform="matrix(1 0 0 1 154.5361 59.8789)" class="st3 st4 st5">8</text>
	<rect x="170.4" y="55.1" class="st2" width="6" height="6"/>
	<text transform="matrix(1 0 0 1 171.8574 59.8789)" class="st3 st4 st5">9</text>
	<rect x="187.1" y="55.1" class="st2" width="7.6" height="6"/>
	<text transform="matrix(1 0 0 1 187.6865 59.8789)" class="st3 st4 st5">10</text>
	<rect x="204.8" y="55.1" class="st2" width="7.1" height="6"/>
	<text transform="matrix(1 0 0 1 205.1484 59.8789)" class="st3 st4 st5">11</text>
	<rect x="222.1" y="55.1" class="st2" width="7.2" height="6"/>
	<text transform="matrix(1 0 0 1 222.5449 59.8789)" class="st3 st4 st5">12</text>
</g>
</svg>
