<?xml version="1.0" encoding="utf-8"?>
<!-- Generator: Adobe Illustrator 21.1.0, SVG Export Plug-In . SVG Version: 6.00 Build 0)  -->
<svg version="1.1" id="Layer_1" xmlns="http://www.w3.org/2000/svg" xmlns:xlink="http://www.w3.org/1999/xlink" x="0px" y="0px"
	 viewBox="0 0 250 250" style="enable-background:new 0 0 250 250;" xml:space="preserve">
<style type="text/css">
	.st0{fill:#FFFFFF;stroke:#231F20;stroke-width:0.5;stroke-miterlimit:10;}
	.st1{fill:#D65329;stroke:#231F20;stroke-width:0.5;stroke-miterlimit:10;}
	.st2{fill:none;}
	.st3{fill:#231F20;}
	.st4{font-family:'OpenSans';}
	.st5{font-size:5.5082px;}
</style>
<g>
	<path class="st0" d="M237.6,201.5H12.4V62.1c12.1-12.7,0,0,12.1-12.7l213.1,0.3V201.5z"/>
	<circle class="st1" cx="33" cy="70" r="6"/>
	<circle class="st1" cx="50.4" cy="70" r="6"/>
	<circle class="st1" cx="67.7" cy="70" r="6"/>
	<circle class="st1" cx="85.1" cy="70" r="6"/>
	<circle class="st1" cx="102.4" cy="70" r="6"/>
	<circle class="st1" cx="119.8" cy="70" r="6"/>
	<circle class="st1" cx="137.1" cy="70" r="6"/>
	<circle class="st1" cx="154.5" cy="70" r="6"/>
	<circle class="st1" cx="171.8" cy="70" r="6"/>
	<circle class="st1" cx="189.1" cy="70" r="6"/>
	<circle class="st1" cx="206.5" cy="70" r="6"/>
	<circle class="st1" cx="223.8" cy="70" r="6"/>
	<circle class="st0" cx="33" cy="87" r="6"/>
	<circle class="st0" cx="50.3" cy="87" r="6"/>
	<circle class="st0" cx="67.6" cy="87" r="6"/>
	<circle class="st0" cx="85" cy="87" r="6"/>
	<circle class="st0" cx="102.3" cy="87" r="6"/>
	<circle class="st0" cx="119.7" cy="87" r="6"/>
	<circle class="st0" cx="137" cy="87" r="6"/>
	<circle class="st0" cx="154.4" cy="87" r="6"/>
	<circle class="st0" cx="171.7" cy="87" r="6"/>
	<circle class="st0" cx="189.1" cy="87" r="6"/>
	<circle class="st0" cx="206.4" cy="87" r="6"/>
	<circle class="st0" cx="223.8" cy="87" r="6"/>
	<circle class="st0" cx="33" cy="104.1" r="6"/>
	<circle class="st0" cx="50.3" cy="104.1" r="6"/>
	<circle class="st0" cx="67.7" cy="104.1" r="6"/>
	<circle class="st0" cx="85" cy="104.1" r="6"/>
	<circle class="st0" cx="102.3" cy="104.1" r="6"/>
	<circle class="st0" cx="119.7" cy="104.1" r="6"/>
	<circle class="st0" cx="137" cy="104.1" r="6"/>
	<circle class="st0" cx="154.4" cy="104.1" r="6"/>
	<circle class="st0" cx="171.7" cy="104.1" r="6"/>
	<circle class="st0" cx="189.1" cy="104.1" r="6"/>
	<circle class="st0" cx="206.4" cy="104.1" r="6"/>
	<circle class="st0" cx="223.8" cy="104.1" r="6"/>
	<circle class="st0" cx="33" cy="121.2" r="6"/>
	<circle class="st0" cx="50.3" cy="121.2" r="6"/>
	<circle class="st0" cx="67.7" cy="121.2" r="6"/>
	<circle class="st0" cx="85" cy="121.2" r="6"/>
	<circle class="st0" cx="102.3" cy="121.2" r="6"/>
	<circle class="st0" cx="119.7" cy="121.2" r="6"/>
	<circle class="st0" cx="137" cy="121.2" r="6"/>
	<circle class="st0" cx="154.4" cy="121.2" r="6"/>
	<circle class="st0" cx="171.7" cy="121.2" r="6"/>
	<circle class="st0" cx="189.1" cy="121.2" r="6"/>
	<circle class="st0" cx="206.4" cy="121.2" r="6"/>
	<circle class="st0" cx="223.8" cy="121.2" r="6"/>
	<circle class="st0" cx="33.1" cy="138.3" r="6"/>
	<circle class="st0" cx="50.5" cy="138.3" r="6"/>
	<circle class="st0" cx="67.8" cy="138.3" r="6"/>
	<circle class="st0" cx="85.2" cy="138.3" r="6"/>
	<circle class="st0" cx="102.5" cy="138.3" r="6"/>
	<circle class="st0" cx="119.9" cy="138.3" r="6"/>
	<circle class="st0" cx="137.2" cy="138.3" r="6"/>
	<circle class="st0" cx="154.6" cy="138.3" r="6"/>
	<circle class="st0" cx="171.9" cy="138.3" r="6"/>
	<circle class="st0" cx="189.3" cy="138.3" r="6"/>
	<circle class="st0" cx="206.6" cy="138.3" r="6"/>
	<circle class="st0" cx="224" cy="138.3" r="6"/>
	<circle class="st0" cx="33.1" cy="155.4" r="6"/>
	<circle class="st0" cx="50.4" cy="155.4" r="6"/>
	<circle class="st0" cx="67.8" cy="155.4" r="6"/>
	<circle class="st0" cx="85.1" cy="155.4" r="6"/>
	<circle class="st0" cx="102.4" cy="155.4" r="6"/>
	<circle class="st0" cx="119.8" cy="155.4" r="6"/>
	<circle class="st0" cx="137.1" cy="155.4" r="6"/>
	<circle class="st0" cx="154.5" cy="155.4" r="6"/>
	<circle class="st0" cx="171.8" cy="155.4" r="6"/>
	<circle class="st0" cx="189.2" cy="155.4" r="6"/>
	<circle class="st0" cx="206.5" cy="155.4" r="6"/>
	<circle class="st0" cx="223.9" cy="155.4" r="6"/>
	<circle class="st0" cx="33.1" cy="172.4" r="6"/>
	<circle class="st0" cx="50.4" cy="172.4" r="6"/>
	<circle class="st0" cx="67.8" cy="172.4" r="6"/>
	<circle class="st0" cx="85.1" cy="172.4" r="6"/>
	<circle class="st0" cx="102.5" cy="172.4" r="6"/>
	<circle class="st0" cx="119.8" cy="172.4" r="6"/>
	<circle class="st0" cx="137.2" cy="172.4" r="6"/>
	<circle class="st0" cx="154.5" cy="172.4" r="6"/>
	<circle class="st0" cx="171.8" cy="172.4" r="6"/>
	<circle class="st0" cx="189.2" cy="172.4" r="6"/>
	<circle class="st0" cx="206.5" cy="172.4" r="6"/>
	<circle class="st0" cx="223.9" cy="172.4" r="6"/>
	<circle class="st0" cx="33.1" cy="189.5" r="6"/>
	<circle class="st0" cx="50.4" cy="189.5" r="6"/>
	<circle class="st0" cx="67.8" cy="189.5" r="6"/>
	<circle class="st0" cx="85.1" cy="189.5" r="6"/>
	<circle class="st0" cx="102.5" cy="189.5" r="6"/>
	<circle class="st0" cx="119.8" cy="189.5" r="6"/>
	<circle class="st0" cx="137.2" cy="189.5" r="6"/>
	<circle class="st0" cx="154.5" cy="189.5" r="6"/>
	<circle class="st0" cx="171.8" cy="189.5" r="6"/>
	<circle class="st0" cx="189.2" cy="189.5" r="6"/>
	<circle class="st0" cx="206.5" cy="189.5" r="6"/>
	<circle class="st0" cx="223.9" cy="189.5" r="6"/>
	<rect x="18.2" y="64" class="st2" width="6" height="12"/>
	<text transform="matrix(1 0 0 1 19.4814 72.1367)" class="st3 st4 st5">A</text>
	<rect x="18.2" y="81.1" class="st2" width="6" height="12"/>
	<text transform="matrix(1 0 0 1 19.4399 89.2158)" class="st3 st4 st5">B</text>
	<rect x="18.2" y="98.1" class="st2" width="6" height="12"/>
	<text transform="matrix(1 0 0 1 19.4867 106.2944)" class="st3 st4 st5">C</text>
	<rect x="18.2" y="115.2" class="st2" width="6" height="12"/>
	<text transform="matrix(1 0 0 1 19.2167 123.373)" class="st3 st4 st5">D</text>
	<rect x="18.2" y="132.3" class="st2" width="6" height="12"/>
	<text transform="matrix(1 0 0 1 19.6928 140.4516)" class="st3 st4 st5">E</text>
	<rect x="18.2" y="149.4" class="st2" width="6" height="12"/>
	<text transform="matrix(1 0 0 1 19.8027 157.5312)" class="st3 st4 st5">F</text>
	<rect x="18.2" y="166.4" class="st2" width="6" height="12"/>
	<text transform="matrix(1 0 0 1 19.2192 174.6103)" class="st3 st4 st5">G</text>
	<rect x="18.2" y="183.5" class="st2" width="6" height="12"/>
	<text transform="matrix(1 0 0 1 19.1923 191.6884)" class="st3 st4 st5">H</text>
	<rect x="30" y="55.8" class="st2" width="6" height="6"/>
	<text transform="matrix(1 0 0 1 31.3774 60.5473)" class="st3 st4 st5">1</text>
	<rect x="47.3" y="55.8" class="st2" width="6" height="6"/>
	<text transform="matrix(1 0 0 1 48.724 60.5473)" class="st3 st4 st5">2</text>
	<rect x="64.7" y="55.8" class="st2" width="6" height="6"/>
	<text transform="matrix(1 0 0 1 66.1459 60.5473)" class="st3 st4 st5">3</text>
	<rect x="82" y="55.8" class="st2" width="6" height="6"/>
	<text transform="matrix(1 0 0 1 83.4169 60.5473)" class="st3 st4 st5">4</text>
	<rect x="99.4" y="55.8" class="st2" width="6" height="6"/>
	<text transform="matrix(1 0 0 1 100.8388 60.5473)" class="st3 st4 st5">5</text>
	<rect x="116.7" y="55.8" class="st2" width="6" height="6"/>
	<text transform="matrix(1 0 0 1 118.1103 60.5473)" class="st3 st4 st5">6</text>
	<rect x="134" y="55.8" class="st2" width="6" height="6"/>
	<text transform="matrix(1 0 0 1 135.456 60.5473)" class="st3 st4 st5">7</text>
	<rect x="151.5" y="55.8" class="st2" width="6" height="6"/>
	<text transform="matrix(1 0 0 1 152.8779 60.5473)" class="st3 st4 st5">8</text>
	<rect x="168.7" y="55.8" class="st2" width="6" height="6"/>
	<text transform="matrix(1 0 0 1 170.1493 60.5473)" class="st3 st4 st5">9</text>
	<rect x="185.3" y="55.8" class="st2" width="7.6" height="6"/>
	<text transform="matrix(1 0 0 1 185.9306 60.5473)" class="st3 st4 st5">10</text>
	<rect x="203" y="55.8" class="st2" width="7.1" height="6"/>
	<text transform="matrix(1 0 0 1 203.3427 60.5473)" class="st3 st4 st5">11</text>
	<rect x="220.2" y="55.8" class="st2" width="7.2" height="6"/>
	<text transform="matrix(1 0 0 1 220.6884 60.5473)" class="st3 st4 st5">12</text>
</g>
</svg>
