<?xml version="1.0" encoding="utf-8"?>
<!-- Generator: Adobe Illustrator 21.1.0, SVG Export Plug-In . SVG Version: 6.00 Build 0)  -->
<svg version="1.1" id="Layer_1" xmlns="http://www.w3.org/2000/svg" xmlns:xlink="http://www.w3.org/1999/xlink" x="0px" y="0px"
	 viewBox="0 0 250 250" style="enable-background:new 0 0 250 250;" xml:space="preserve">
<style type="text/css">
	.st0{fill:#FFFFFF;stroke:#231F20;stroke-width:0.5;stroke-miterlimit:10;}
	.st1{fill:#D65329;stroke:#231F20;stroke-width:0.5;stroke-miterlimit:10;}
	.st2{fill:none;}
	.st3{fill:#231F20;}
	.st4{font-family:'OpenSans';}
	.st5{font-size:5.5291px;}
</style>
<g>
	<path class="st0" d="M238.9,201.7H12.8V61.8C25,49,12.8,61.8,25,49l213.9,0.3V201.7z"/>
	<circle class="st1" cx="33.5" cy="69.7" r="6"/>
	<circle class="st0" cx="50.9" cy="69.7" r="6"/>
	<circle class="st0" cx="68.4" cy="69.7" r="6"/>
	<circle class="st0" cx="85.8" cy="69.7" r="6"/>
	<circle class="st0" cx="103.2" cy="69.7" r="6"/>
	<circle class="st0" cx="120.6" cy="69.7" r="6"/>
	<circle class="st0" cx="138" cy="69.7" r="6"/>
	<circle class="st0" cx="155.4" cy="69.7" r="6"/>
	<circle class="st0" cx="172.8" cy="69.7" r="6"/>
	<circle class="st0" cx="190.2" cy="69.7" r="6"/>
	<circle class="st0" cx="207.7" cy="69.7" r="6"/>
	<circle class="st0" cx="225.1" cy="69.7" r="6"/>
	<circle class="st1" cx="33.5" cy="86.9" r="6"/>
	<circle class="st0" cx="50.9" cy="86.9" r="6"/>
	<circle class="st0" cx="68.3" cy="86.9" r="6"/>
	<circle class="st0" cx="85.7" cy="86.9" r="6"/>
	<circle class="st0" cx="103.1" cy="86.9" r="6"/>
	<circle class="st0" cx="120.5" cy="86.9" r="6"/>
	<circle class="st0" cx="137.9" cy="86.9" r="6"/>
	<circle class="st0" cx="155.3" cy="86.9" r="6"/>
	<circle class="st0" cx="172.8" cy="86.9" r="6"/>
	<circle class="st0" cx="190.2" cy="86.9" r="6"/>
	<circle class="st0" cx="207.6" cy="86.9" r="6"/>
	<circle class="st0" cx="225" cy="86.9" r="6"/>
	<circle class="st1" cx="33.5" cy="104" r="6"/>
	<circle class="st0" cx="50.9" cy="104" r="6"/>
	<circle class="st0" cx="68.3" cy="104" r="6"/>
	<circle class="st0" cx="85.7" cy="104" r="6"/>
	<circle class="st0" cx="103.1" cy="104" r="6"/>
	<circle class="st0" cx="120.5" cy="104" r="6"/>
	<circle class="st0" cx="137.9" cy="104" r="6"/>
	<circle class="st0" cx="155.4" cy="104" r="6"/>
	<circle class="st0" cx="172.8" cy="104" r="6"/>
	<circle class="st0" cx="190.2" cy="104" r="6"/>
	<circle class="st0" cx="207.6" cy="104" r="6"/>
	<circle class="st0" cx="225" cy="104" r="6"/>
	<circle class="st1" cx="33.5" cy="121.1" r="6"/>
	<circle class="st0" cx="50.9" cy="121.1" r="6"/>
	<circle class="st0" cx="68.3" cy="121.1" r="6"/>
	<circle class="st0" cx="85.7" cy="121.1" r="6"/>
	<circle class="st0" cx="103.1" cy="121.1" r="6"/>
	<circle class="st0" cx="120.5" cy="121.1" r="6"/>
	<circle class="st0" cx="137.9" cy="121.1" r="6"/>
	<circle class="st0" cx="155.4" cy="121.1" r="6"/>
	<circle class="st0" cx="172.8" cy="121.1" r="6"/>
	<circle class="st0" cx="190.2" cy="121.1" r="6"/>
	<circle class="st0" cx="207.6" cy="121.1" r="6"/>
	<circle class="st0" cx="225" cy="121.1" r="6"/>
	<circle class="st1" cx="33.6" cy="138.3" r="6"/>
	<circle class="st0" cx="51.1" cy="138.3" r="6"/>
	<circle class="st0" cx="68.5" cy="138.3" r="6"/>
	<circle class="st0" cx="85.9" cy="138.3" r="6"/>
	<circle class="st0" cx="103.3" cy="138.3" r="6"/>
	<circle class="st0" cx="120.7" cy="138.3" r="6"/>
	<circle class="st0" cx="138.1" cy="138.3" r="6"/>
	<circle class="st0" cx="155.5" cy="138.3" r="6"/>
	<circle class="st0" cx="172.9" cy="138.3" r="6"/>
	<circle class="st0" cx="190.4" cy="138.3" r="6"/>
	<circle class="st0" cx="207.8" cy="138.3" r="6"/>
	<circle class="st0" cx="225.2" cy="138.3" r="6"/>
	<circle class="st1" cx="33.6" cy="155.4" r="6"/>
	<circle class="st0" cx="51" cy="155.4" r="6"/>
	<circle class="st0" cx="68.4" cy="155.4" r="6"/>
	<circle class="st0" cx="85.8" cy="155.4" r="6"/>
	<circle class="st0" cx="103.2" cy="155.4" r="6"/>
	<circle class="st0" cx="120.6" cy="155.4" r="6"/>
	<circle class="st0" cx="138" cy="155.4" r="6"/>
	<circle class="st0" cx="155.5" cy="155.4" r="6"/>
	<circle class="st0" cx="172.9" cy="155.4" r="6"/>
	<circle class="st0" cx="190.3" cy="155.4" r="6"/>
	<circle class="st0" cx="207.7" cy="155.4" r="6"/>
	<circle class="st0" cx="225.1" cy="155.4" r="6"/>
	<circle class="st1" cx="33.6" cy="172.6" r="6"/>
	<circle class="st0" cx="51" cy="172.6" r="6"/>
	<circle class="st0" cx="68.4" cy="172.6" r="6"/>
	<circle class="st0" cx="85.8" cy="172.6" r="6"/>
	<circle class="st0" cx="103.2" cy="172.6" r="6"/>
	<circle class="st0" cx="120.6" cy="172.6" r="6"/>
	<circle class="st0" cx="138.1" cy="172.6" r="6"/>
	<circle class="st0" cx="155.5" cy="172.6" r="6"/>
	<circle class="st0" cx="172.9" cy="172.6" r="6"/>
	<circle class="st0" cx="190.3" cy="172.6" r="6"/>
	<circle class="st0" cx="207.7" cy="172.6" r="6"/>
	<circle class="st0" cx="225.1" cy="172.6" r="6"/>
	<circle class="st1" cx="33.6" cy="189.7" r="6"/>
	<circle class="st0" cx="51" cy="189.7" r="6"/>
	<circle class="st0" cx="68.4" cy="189.7" r="6"/>
	<circle class="st0" cx="85.8" cy="189.7" r="6"/>
	<circle class="st0" cx="103.2" cy="189.7" r="6"/>
	<circle class="st0" cx="120.6" cy="189.7" r="6"/>
	<circle class="st0" cx="138.1" cy="189.7" r="6"/>
	<circle class="st0" cx="155.5" cy="189.7" r="6"/>
	<circle class="st0" cx="172.9" cy="189.7" r="6"/>
	<circle class="st0" cx="190.3" cy="189.7" r="6"/>
	<circle class="st0" cx="207.7" cy="189.7" r="6"/>
	<circle class="st0" cx="225.1" cy="189.7" r="6"/>
	<rect x="18.7" y="63.7" class="st2" width="6" height="12"/>
	<text transform="matrix(1 0 0 1 19.9382 71.903)" class="st3 st4 st5">A</text>
	<rect x="18.7" y="80.9" class="st2" width="6" height="12"/>
	<text transform="matrix(1 0 0 1 19.8962 89.0465)" class="st3 st4 st5">B</text>
	<rect x="18.7" y="98" class="st2" width="6" height="12"/>
	<text transform="matrix(1 0 0 1 19.9435 106.1901)" class="st3 st4 st5">C</text>
	<rect x="18.7" y="115.1" class="st2" width="6" height="12"/>
	<text transform="matrix(1 0 0 1 19.6721 123.3336)" class="st3 st4 st5">D</text>
	<rect x="18.7" y="132.3" class="st2" width="6" height="12"/>
	<text transform="matrix(1 0 0 1 20.1501 140.4762)" class="st3 st4 st5">E</text>
	<rect x="18.7" y="149.4" class="st2" width="6" height="12"/>
	<text transform="matrix(1 0 0 1 20.2604 157.6188)" class="st3 st4 st5">F</text>
	<rect x="18.7" y="166.6" class="st2" width="6" height="12"/>
	<text transform="matrix(1 0 0 1 19.675 174.7633)" class="st3 st4 st5">G</text>
	<rect x="18.7" y="183.7" class="st2" width="6" height="12"/>
	<text transform="matrix(1 0 0 1 19.6476 191.9059)" class="st3 st4 st5">H</text>
	<rect x="30.5" y="55.5" class="st2" width="6" height="6"/>
	<text transform="matrix(1 0 0 1 31.8791 60.2702)" class="st3 st4 st5">1</text>
	<rect x="47.9" y="55.5" class="st2" width="6" height="6"/>
	<text transform="matrix(1 0 0 1 49.2912 60.2702)" class="st3 st4 st5">2</text>
	<rect x="65.4" y="55.5" class="st2" width="6" height="6"/>
	<text transform="matrix(1 0 0 1 66.7795 60.2702)" class="st3 st4 st5">3</text>
	<rect x="82.7" y="55.5" class="st2" width="6" height="6"/>
	<text transform="matrix(1 0 0 1 84.1154 60.2702)" class="st3 st4 st5">4</text>
	<rect x="100.2" y="55.5" class="st2" width="6" height="6"/>
	<text transform="matrix(1 0 0 1 101.6037 60.2702)" class="st3 st4 st5">5</text>
	<rect x="117.5" y="55.5" class="st2" width="6" height="6"/>
	<text transform="matrix(1 0 0 1 118.9396 60.2702)" class="st3 st4 st5">6</text>
	<rect x="134.9" y="55.5" class="st2" width="6" height="6"/>
	<text transform="matrix(1 0 0 1 136.3517 60.2702)" class="st3 st4 st5">7</text>
	<rect x="152.4" y="55.5" class="st2" width="6" height="6"/>
	<text transform="matrix(1 0 0 1 153.84 60.2702)" class="st3 st4 st5">8</text>
	<rect x="169.8" y="55.5" class="st2" width="6" height="6"/>
	<text transform="matrix(1 0 0 1 171.1769 60.2702)" class="st3 st4 st5">9</text>
	<rect x="186.4" y="55.5" class="st2" width="7.6" height="6"/>
	<text transform="matrix(1 0 0 1 187.0178 60.2702)" class="st3 st4 st5">10</text>
	<rect x="204.1" y="55.5" class="st2" width="7.1" height="6"/>
	<text transform="matrix(1 0 0 1 204.4953 60.2702)" class="st3 st4 st5">11</text>
	<rect x="221.4" y="55.5" class="st2" width="7.2" height="6"/>
	<text transform="matrix(1 0 0 1 221.9084 60.2702)" class="st3 st4 st5">12</text>
</g>
</svg>
