<?xml version="1.0" encoding="utf-8"?>
<!-- Generator: Adobe Illustrator 21.1.0, SVG Export Plug-In . SVG Version: 6.00 Build 0)  -->
<svg version="1.1" id="Layer_1" xmlns="http://www.w3.org/2000/svg" xmlns:xlink="http://www.w3.org/1999/xlink" x="0px" y="0px"
	 viewBox="0 0 250 250" style="enable-background:new 0 0 250 250;" xml:space="preserve">
<style type="text/css">
	.st0{fill:#FFFFFF;stroke:#231F20;stroke-width:0.5;stroke-miterlimit:10;}
	.st1{fill:#D65329;stroke:#231F20;stroke-width:0.5;stroke-miterlimit:10;}
	.st2{fill:none;}
	.st3{fill:#231F20;}
	.st4{font-family:'OpenSans';}
	.st5{font-size:5.5301px;}
</style>
<g>
	<path class="st0" d="M238.9,201.5H12.8v-140c12.2-12.8,0,0,12.2-12.8l213.9,0.3V201.5z"/>
	<circle class="st1" cx="33.5" cy="69.5" r="6"/>
	<circle class="st1" cx="50.9" cy="69.5" r="6"/>
	<circle class="st1" cx="68.3" cy="69.5" r="6"/>
	<circle class="st0" cx="85.7" cy="69.5" r="6"/>
	<circle class="st0" cx="103.2" cy="69.5" r="6"/>
	<circle class="st0" cx="120.6" cy="69.5" r="6"/>
	<circle class="st0" cx="138" cy="69.5" r="6"/>
	<circle class="st0" cx="155.4" cy="69.5" r="6"/>
	<circle class="st0" cx="172.8" cy="69.5" r="6"/>
	<circle class="st0" cx="190.2" cy="69.5" r="6"/>
	<circle class="st0" cx="207.7" cy="69.5" r="6"/>
	<circle class="st0" cx="225.1" cy="69.5" r="6"/>
	<circle class="st1" cx="33.4" cy="86.6" r="6"/>
	<circle class="st1" cx="50.8" cy="86.6" r="6"/>
	<circle class="st1" cx="68.3" cy="86.6" r="6"/>
	<circle class="st0" cx="85.7" cy="86.6" r="6"/>
	<circle class="st0" cx="103.1" cy="86.6" r="6"/>
	<circle class="st0" cx="120.5" cy="86.6" r="6"/>
	<circle class="st0" cx="137.9" cy="86.6" r="6"/>
	<circle class="st0" cx="155.3" cy="86.6" r="6"/>
	<circle class="st0" cx="172.7" cy="86.6" r="6"/>
	<circle class="st0" cx="190.2" cy="86.6" r="6"/>
	<circle class="st0" cx="207.6" cy="86.6" r="6"/>
	<circle class="st0" cx="225" cy="86.6" r="6"/>
	<circle class="st1" cx="33.4" cy="103.8" r="6"/>
	<circle class="st1" cx="50.8" cy="103.8" r="6"/>
	<circle class="st1" cx="68.3" cy="103.8" r="6"/>
	<circle class="st0" cx="85.7" cy="103.8" r="6"/>
	<circle class="st0" cx="103.1" cy="103.8" r="6"/>
	<circle class="st0" cx="120.5" cy="103.8" r="6"/>
	<circle class="st0" cx="137.9" cy="103.8" r="6"/>
	<circle class="st0" cx="155.3" cy="103.8" r="6"/>
	<circle class="st0" cx="172.8" cy="103.8" r="6"/>
	<circle class="st0" cx="190.2" cy="103.8" r="6"/>
	<circle class="st0" cx="207.6" cy="103.8" r="6"/>
	<circle class="st0" cx="225" cy="103.8" r="6"/>
	<circle class="st0" cx="33.4" cy="120.9" r="6"/>
	<circle class="st0" cx="50.8" cy="120.9" r="6"/>
	<circle class="st0" cx="68.3" cy="120.9" r="6"/>
	<circle class="st0" cx="85.7" cy="120.9" r="6"/>
	<circle class="st0" cx="103.1" cy="120.9" r="6"/>
	<circle class="st0" cx="120.5" cy="120.9" r="6"/>
	<circle class="st0" cx="137.9" cy="120.9" r="6"/>
	<circle class="st0" cx="155.3" cy="120.9" r="6"/>
	<circle class="st0" cx="172.8" cy="120.9" r="6"/>
	<circle class="st0" cx="190.2" cy="120.9" r="6"/>
	<circle class="st0" cx="207.6" cy="120.9" r="6"/>
	<circle class="st0" cx="225" cy="120.9" r="6"/>
	<circle class="st0" cx="33.6" cy="138.1" r="6"/>
	<circle class="st0" cx="51" cy="138.1" r="6"/>
	<circle class="st0" cx="68.4" cy="138.1" r="6"/>
	<circle class="st0" cx="85.9" cy="138.1" r="6"/>
	<circle class="st0" cx="103.3" cy="138.1" r="6"/>
	<circle class="st0" cx="120.7" cy="138.1" r="6"/>
	<circle class="st0" cx="138.1" cy="138.1" r="6"/>
	<circle class="st0" cx="155.5" cy="138.1" r="6"/>
	<circle class="st0" cx="172.9" cy="138.1" r="6"/>
	<circle class="st0" cx="190.3" cy="138.1" r="6"/>
	<circle class="st0" cx="207.8" cy="138.1" r="6"/>
	<circle class="st0" cx="225.2" cy="138.1" r="6"/>
	<circle class="st0" cx="33.5" cy="155.2" r="6"/>
	<circle class="st0" cx="51" cy="155.2" r="6"/>
	<circle class="st0" cx="68.4" cy="155.2" r="6"/>
	<circle class="st0" cx="85.8" cy="155.2" r="6"/>
	<circle class="st0" cx="103.2" cy="155.2" r="6"/>
	<circle class="st0" cx="120.6" cy="155.2" r="6"/>
	<circle class="st0" cx="138" cy="155.2" r="6"/>
	<circle class="st0" cx="155.4" cy="155.2" r="6"/>
	<circle class="st0" cx="172.9" cy="155.2" r="6"/>
	<circle class="st0" cx="190.3" cy="155.2" r="6"/>
	<circle class="st0" cx="207.7" cy="155.2" r="6"/>
	<circle class="st0" cx="225.1" cy="155.2" r="6"/>
	<circle class="st0" cx="33.5" cy="172.3" r="6"/>
	<circle class="st0" cx="51" cy="172.3" r="6"/>
	<circle class="st0" cx="68.4" cy="172.3" r="6"/>
	<circle class="st0" cx="85.8" cy="172.3" r="6"/>
	<circle class="st0" cx="103.2" cy="172.3" r="6"/>
	<circle class="st0" cx="120.6" cy="172.3" r="6"/>
	<circle class="st0" cx="138" cy="172.3" r="6"/>
	<circle class="st0" cx="155.5" cy="172.3" r="6"/>
	<circle class="st0" cx="172.9" cy="172.3" r="6"/>
	<circle class="st0" cx="190.3" cy="172.3" r="6"/>
	<circle class="st0" cx="207.7" cy="172.3" r="6"/>
	<circle class="st0" cx="225.1" cy="172.3" r="6"/>
	<circle class="st0" cx="33.5" cy="189.5" r="6"/>
	<circle class="st0" cx="51" cy="189.5" r="6"/>
	<circle class="st0" cx="68.4" cy="189.5" r="6"/>
	<circle class="st0" cx="85.8" cy="189.5" r="6"/>
	<circle class="st0" cx="103.2" cy="189.5" r="6"/>
	<circle class="st0" cx="120.6" cy="189.5" r="6"/>
	<circle class="st0" cx="138" cy="189.5" r="6"/>
	<circle class="st0" cx="155.5" cy="189.5" r="6"/>
	<circle class="st0" cx="172.9" cy="189.5" r="6"/>
	<circle class="st0" cx="190.3" cy="189.5" r="6"/>
	<circle class="st0" cx="207.7" cy="189.5" r="6"/>
	<circle class="st0" cx="225.1" cy="189.5" r="6"/>
	<rect x="18.7" y="63.5" class="st2" width="6" height="12"/>
	<text transform="matrix(1 0 0 1 19.8999 71.6558)" class="st3 st4 st5">A</text>
	<rect x="18.7" y="80.6" class="st2" width="6" height="12"/>
	<text transform="matrix(1 0 0 1 19.8579 88.8022)" class="st3 st4 st5">B</text>
	<rect x="18.7" y="97.8" class="st2" width="6" height="12"/>
	<text transform="matrix(1 0 0 1 19.9053 105.9487)" class="st3 st4 st5">C</text>
	<rect x="18.7" y="114.9" class="st2" width="6" height="12"/>
	<text transform="matrix(1 0 0 1 19.6338 123.0962)" class="st3 st4 st5">D</text>
	<rect x="18.7" y="132" class="st2" width="6" height="12"/>
	<text transform="matrix(1 0 0 1 20.1118 140.2422)" class="st3 st4 st5">E</text>
	<rect x="18.7" y="149.2" class="st2" width="6" height="12"/>
	<text transform="matrix(1 0 0 1 20.2222 157.3887)" class="st3 st4 st5">F</text>
	<rect x="18.7" y="166.3" class="st2" width="6" height="12"/>
	<text transform="matrix(1 0 0 1 19.6362 174.5352)" class="st3 st4 st5">G</text>
	<rect x="18.7" y="183.5" class="st2" width="6" height="12"/>
	<text transform="matrix(1 0 0 1 19.6094 191.6816)" class="st3 st4 st5">H</text>
	<rect x="30.4" y="55.3" class="st2" width="6" height="6"/>
	<text transform="matrix(1 0 0 1 31.8428 60.021)" class="st3 st4 st5">1</text>
	<rect x="47.8" y="55.3" class="st2" width="6" height="6"/>
	<text transform="matrix(1 0 0 1 49.2578 60.021)" class="st3 st4 st5">2</text>
	<rect x="65.3" y="55.3" class="st2" width="6" height="6"/>
	<text transform="matrix(1 0 0 1 66.7495 60.021)" class="st3 st4 st5">3</text>
	<rect x="82.7" y="55.3" class="st2" width="6" height="6"/>
	<text transform="matrix(1 0 0 1 84.0884 60.021)" class="st3 st4 st5">4</text>
	<rect x="100.2" y="55.3" class="st2" width="6" height="6"/>
	<text transform="matrix(1 0 0 1 101.5791 60.021)" class="st3 st4 st5">5</text>
	<rect x="117.5" y="55.3" class="st2" width="6" height="6"/>
	<text transform="matrix(1 0 0 1 118.9194 60.021)" class="st3 st4 st5">6</text>
	<rect x="134.9" y="55.3" class="st2" width="6" height="6"/>
	<text transform="matrix(1 0 0 1 136.334 60.021)" class="st3 st4 st5">7</text>
	<rect x="152.4" y="55.3" class="st2" width="6" height="6"/>
	<text transform="matrix(1 0 0 1 153.8262 60.021)" class="st3 st4 st5">8</text>
	<rect x="169.8" y="55.3" class="st2" width="6" height="6"/>
	<text transform="matrix(1 0 0 1 171.1641 60.021)" class="st3 st4 st5">9</text>
	<rect x="186.4" y="55.3" class="st2" width="7.6" height="6"/>
	<text transform="matrix(1 0 0 1 187.0088 60.021)" class="st3 st4 st5">10</text>
	<rect x="204.1" y="55.3" class="st2" width="7.1" height="6"/>
	<text transform="matrix(1 0 0 1 204.4902 60.021)" class="st3 st4 st5">11</text>
	<rect x="221.4" y="55.3" class="st2" width="7.2" height="6"/>
	<text transform="matrix(1 0 0 1 221.9053 60.021)" class="st3 st4 st5">12</text>
</g>
</svg>
