<svg id="Layer_1" data-name="Layer 1" xmlns="http://www.w3.org/2000/svg" viewBox="0 0 759.77 687.2"><defs><style>.cls-1,.cls-2,.cls-3,.cls-4{fill:#f05a22;}.cls-1,.cls-2,.cls-6,.cls-7{fill-rule:evenodd;}.cls-2{stroke:#f05a22;}.cls-2,.cls-4{stroke-miterlimit:10;}.cls-4{stroke:#ed472e;stroke-width:2px;}.cls-5{fill:none;}.cls-7{fill:#d55329;}.cls-8{fill:#4da347;}</style></defs><title>Icons and logo</title><path class="cls-1" d="M772.51,168a8.36,8.36,0,0,0-.57,1c-1.26,3.31-3.37,5.67-7,6.28a16.6,16.6,0,0,1-2.71.23q-10.89,0-21.78,0c-1.1,0-1.1,0-1.1,1.13v3.51c-1.44,0-2.81,0-4.17,0-.14,0-.38-.42-.39-.65,0-1-.06-1.93,0-2.9,0-.8-.17-1.22-1.05-1.07a5,5,0,0,1-1,0c-1.38-.06-1.84.28-2.33,1.59-.56,1.52-1.11,3.06-1.77,4.53a27.35,27.35,0,0,1-4.56,7,2.76,2.76,0,0,0-.52,3.3,20.62,20.62,0,0,1-14.79,28.11,21.54,21.54,0,0,1-4.27.39q-23,.06-46,.06c-4,0-8,0-12-.06-7.7-.05-13.51-3.43-17.52-10a21.7,21.7,0,0,1-2.93-8.28,18,18,0,0,1,2.18-11.66c2.54-4.46,5.17-8.85,7.83-13.24q11-18.11,22-36.19a6,6,0,0,0,.9-3.21q0-28.77.09-57.54c0-.28,0-.55,0-.83.05-.65-.23-.85-.87-.84-2.54,0-5.08,0-7.62,0-.74,0-.93-.21-.93-.93,0-1.21-.11-2.41-.18-3.7h51.87v4.57c-.28,0-.57,0-.86,0-2.43,0-4.86,0-7.29,0-.82,0-1.08.19-1.07,1q0,15.65,0,31.3V131c.59,0,1.1,0,1.61,0a35.15,35.15,0,0,1,18.46,3.4c.75.36,1.09.24,1.5-.43q2.71-4.45,5.5-8.85a2.25,2.25,0,0,0,.23-2.19c-.27-.66-.54-1.33-.8-2-1.55-4,1.58-8.67,5.82-9a7,7,0,0,1,7.77,6.79,1.86,1.86,0,0,0,1.13,1.7c3.16,1.57,6.29,3.19,9.48,4.7a3,3,0,0,0,1.88,0c1.42-.39,2.79-1,4.21-1.37a2.15,2.15,0,0,0,1.43-1.36q2.5-5.54,5-11.07c1.42-3.13,2.83-6.28,4.31-9.39a2.75,2.75,0,0,0-.2-3A7,7,0,1,1,771.62,92c.31.55.59,1.11.89,1.67V97a5.62,5.62,0,0,0-.56.85,6.71,6.71,0,0,1-6.05,4.42,2.1,2.1,0,0,0-1.89,1.37q-4.78,10.44-9.57,20.88a2.17,2.17,0,0,0,.21,2.33,6.51,6.51,0,0,1,1.07,5.42,7,7,0,0,1-12.21,3,8.08,8.08,0,0,1-1.62-4.52,1.6,1.6,0,0,0-.57-1.13c-3.43-1.76-6.88-3.47-10.34-5.16a1.51,1.51,0,0,0-1-.07c-1.76.54-3.52,1.11-5.25,1.74a2.55,2.55,0,0,0-1.18.94c-2,3.1-3.94,6.25-5.93,9.36-.35.55-.34.86.21,1.27a36.9,36.9,0,0,1,7.12,7,36,36,0,0,1,5.63,10.7c.38,1.14.72,1.4,1.83,1.42.55,0,1.11,0,1.65,0s.8-.24.78-.82c0-1,0-2.1,0-3.15,0-.47.1-.72.63-.7,1.1,0,2.21,0,3.31,0,.47,0,.63.19.62.64,0,1,0,2,0,3s.25,1.06,1.08,1.06q11.18,0,22.35,0A9.31,9.31,0,0,1,772,163.2c.16.4.36.79.54,1.19Zm-53.17,25.74-.94.62a46.05,46.05,0,0,1-8.67,4.79,32.67,32.67,0,0,1-18.53,2.11,37.41,37.41,0,0,1-12.36-4.72c-6.67-3.91-11.79-9.22-14.7-16.48a39.36,39.36,0,0,1-2.57-17.17c0-.43,0-.87,0-1.37-.36,0-.65,0-.95,0-2.62,0-5.25.06-7.87,0a2.44,2.44,0,0,0-2.42,1.34c-1.76,2.93-3.57,5.83-5.34,8.76-4.07,6.75-8.17,13.49-12.19,20.27a15.24,15.24,0,0,0-1.45,13,15.87,15.87,0,0,0,15.14,11c3.69,0,7.39.12,11.09.12q23.35,0,46.7-.07a18.16,18.16,0,0,0,5.2-.78,16.22,16.22,0,0,0,10.86-17.71A35.82,35.82,0,0,0,719.34,193.78Zm-65.27-37h6.84c1.54,0,1.85-.19,2.35-1.65a35.37,35.37,0,0,1,10.8-16.06,37.63,37.63,0,0,1,11.74-6.48c1.37-.48,1.64-.82,1.64-2q0-25.3,0-50.59c0-1.23,0-1.23-1.24-1.24H664.92c-1.26,0-1.27,0-1.27,1.26q0,29.15,0,58.29a8.72,8.72,0,0,1-1.33,4.76c-2.59,4.2-5.13,8.43-7.68,12.66C654.47,156,654.32,156.36,654.07,156.83Zm51.48-9.88c-8.46-4.27-21.39-1.8-27.33,8.94A21.31,21.31,0,1,0,716.71,174c4.15-10.38-1.27-21.16-7.23-24.48-.15.22-.31.45-.45.68-2.18,3.48-4.34,7-6.54,10.44a1.17,1.17,0,0,0,0,1.53,6.85,6.85,0,0,1,1.21,5.63,7,7,0,0,1-8.44,5.31,6.93,6.93,0,0,1-5.24-8.61,7.08,7.08,0,0,1,6.54-5.3,2.31,2.31,0,0,0,2-1.16c1-1.7,2.12-3.36,3.18-5C703,151,704.27,149,705.54,146.95Zm5-8c-10.43-6.19-28.71-4.87-38.79,9.56a30.73,30.73,0,1,0,52.21,32.22c8.1-15.12,1.72-32.24-9.31-39.35a.81.81,0,0,0-.18.16c-.57.88-1.09,1.8-1.71,2.64s-.43,1.08.25,1.66c7.86,6.72,11.12,15.23,9.23,25.4-2.81,15.11-17.47,23.15-30.84,20.36a25.87,25.87,0,0,1-20.17-29c1.42-9.25,6.39-16,14.93-20a23.42,23.42,0,0,1,14.49-2c2.31.44,4.54,1.28,6.81,1.91.28.08.78.08.89-.09C709.08,141.32,709.77,140.16,710.51,139ZM752,161.52h0c-3.84,0-7.67,0-11.51,0-.75,0-1.1.23-1.08,1.05,0,2.51,0,5,0,7.53,0,.67.2.93.9.92,7.64,0,15.29-.06,22.93-.12a4.51,4.51,0,0,0,4.56-4.83,4.58,4.58,0,0,0-4.7-4.54Zm-19.77.13c0,2.52,0,5,0,7.53,0,2-.42,1.67,1.75,1.72.56,0,.7-.21.69-.73,0-2.23,0-4.47,0-6.7s0-2.15-2.19-1.94A1.28,1.28,0,0,0,732.2,161.66Zm-9.31-42.82a2.37,2.37,0,0,0,2.23,2.47,2.55,2.55,0,0,0,2.49-2.37,2.46,2.46,0,0,0-2.38-2.37A2.32,2.32,0,0,0,722.9,118.84Zm44.86-23.53a2.4,2.4,0,0,0-2.31-2.42A2.56,2.56,0,0,0,763,95.23a2.42,2.42,0,0,0,2.35,2.39A2.33,2.33,0,0,0,767.75,95.31ZM699.2,166.23a2.36,2.36,0,1,0-4.72,0,2.36,2.36,0,1,0,4.72,0Zm49.65-37.84a2.36,2.36,0,1,0,.06,4.72,2.36,2.36,0,0,0-.06-4.72Z" transform="translate(-52.82 -68.01)"/><path class="cls-1" d="M386.8,68c1.19.18,2.39.32,3.57.55A21.31,21.31,0,0,1,407.13,86a26,26,0,0,1,.31,3.86q0,57.3,0,114.6A21.39,21.39,0,0,1,390,225.57a21,21,0,0,1-3.86.35q-54.48,0-109,0a21.36,21.36,0,0,1-21-18.11,27.48,27.48,0,0,1-.3-3.95q0-57.18,0-114.35A21.38,21.38,0,0,1,273.5,68.42c1-.18,2-.28,3-.42Zm15.3,79q0-28.69,0-57.38a16.72,16.72,0,0,0-.16-2.39,16.06,16.06,0,0,0-16-13.82H277.41a15.31,15.31,0,0,0-2.8.22,16.09,16.09,0,0,0-13.4,16.19q0,57.17,0,114.34a20.22,20.22,0,0,0,.34,3.61,16.1,16.1,0,0,0,15.35,12.78H386.38a13.63,13.63,0,0,0,2.47-.21,16.24,16.24,0,0,0,13.27-16C402,185.26,402.1,166.14,402.1,147Z" transform="translate(-52.82 -68.01)"/><path class="cls-1" d="M91.19,177.48c.29-1.22.63-2.43.86-3.67q3.35-18,6.66-36.1a9.84,9.84,0,0,1,1.8-4.73,6.71,6.71,0,0,1,5.21-2.65c6.48-.07,13-.06,19.45-.06,3.64,0,7.28,0,10.93,0a10.14,10.14,0,0,1,4.6,1.15c9.58,4.8,19.17,9.59,28.73,14.44a8.23,8.23,0,0,0,6.29.64q16-4.61,32-9.18c3.28-.94,6.55-1.92,9.85-2.78a10.48,10.48,0,0,1,3.32-.26,2.93,2.93,0,0,1,2.56,2.28,3,3,0,0,1-.73,3.42,8.46,8.46,0,0,1-2.92,1.61c-10.75,3.13-21.52,6.2-32.28,9.28-3.76,1.07-7.52,2.12-11.28,3.19-1.52.43-1.75.82-1.79,2.41a32.61,32.61,0,0,1-.32,5.43,7.15,7.15,0,0,1-9.15,5.78c-6.89-1.68-13.78-3.4-20.66-5.1l-1.08-.23c-.13.9-.28,1.75-.37,2.61-.57,5.11-1.12,10.23-1.7,15.34s-1.19,10.39-1.77,15.59c-.47,4.27-.89,8.54-1.38,12.81-.52,4.59-1.06,9.18-1.65,13.77a6.89,6.89,0,0,1-6.41,5.92q-8.31.17-16.62,0a7.13,7.13,0,0,1-6.8-6.33c-.33-2.54-.47-5.1-.68-7.65q-.41-5-.8-10c-.24-3-.46-6-.7-9.06-.21-2.66-.45-5.32-.65-8,0-.58-.36-.57-.78-.57-1.37,0-2.75.07-4.12,0a7.7,7.7,0,0,1-7.27-5.18,5.08,5.08,0,0,0-.31-.57Zm75.74-16.94c0-2.07-.08-4,0-5.87a2.45,2.45,0,0,0-1.63-2.62c-9.17-4.53-18.31-9.12-27.48-13.65a6.63,6.63,0,0,0-2.67-.64c-2.87-.08-5.74,0-8.61,0-1.41,0-1.41,0-1.42,1.38q0,11,0,21.94a3.62,3.62,0,0,1-5.32,3.06,4,4,0,0,1-2.06-3.87c0-7.15,0-14.29,0-21.44,0-.76-.22-1-1-1-3.15,0-6.29,0-9.44,0-.79,0-1.1.22-1.24,1-.76,4.31-1.55,8.61-2.34,12.91q-2.22,12.22-4.44,24.43c-.19,1.07-.37,2.14-.57,3.34h10.72c1.14,0,1.14,0,1.22,1.12q.24,3.09.49,6.18l1.33,16.64c.44,5.54.91,11.09,1.3,16.64.06.79.33,1,1,1,2.79,0,5.57,0,8.36,0h5.13c.4,0,.78,0,.83-.57.1-1,.22-2.08.34-3.12.35-3.2.69-6.4,1-9.6s.74-6.45,1.1-9.68.69-6.4,1-9.6c.42-3.72.86-7.44,1.27-11.15.36-3.23.69-6.46,1-9.69q.64-5.83,1.3-11.65c.11-1,.25-1.94.38-3Z" transform="translate(-52.82 -68.01)"/><path class="cls-1" d="M591.24,200.87c.65.05,1.3.14,1.95.15,4.66,0,9.33,0,14,0a6.13,6.13,0,0,1,2.09.35,2.24,2.24,0,0,1,1.59,2.32q-.07,8.94,0,17.88a1.7,1.7,0,0,1-1,1.79,8.43,8.43,0,0,1-2.92.7q-26.54.06-53.07,0H441.24a8,8,0,0,1-1.56-.14,2.9,2.9,0,0,1-2.54-3.07q0-8.4,0-16.81a3,3,0,0,1,3-3.05c1.38,0,2.75.05,4.13.1a4.38,4.38,0,0,0,4-1.94c3.51-5.11,4.55-10.51,1.74-16.29-.53-1.09-1.15-2.13-1.78-3.17a3.4,3.4,0,0,0-2.94-1.85c-1.35,0-2.7,0-4-.11a8.68,8.68,0,0,1-2.34-.37c-2-.7-2.28-2.61-1.28-4.24s2.26-3.47,3.29-5.26a14.05,14.05,0,0,0,0-14.7c-1-1.78-2.12-3.49-3.25-5.19a2.92,2.92,0,0,1-.32-3,3.22,3.22,0,0,1,3-1.91c1.63,0,3.25,0,4.88,0A3.15,3.15,0,0,0,448,141.8a19.49,19.49,0,0,0,3.48-7.87,14.23,14.23,0,0,0-1.72-9.49c-.93-1.66-2-3.21-3-4.87a6.07,6.07,0,0,1-.8-2.38,2.68,2.68,0,0,1,2.69-2.93c.83-.05,1.66-.06,2.48-.06H530.7c3.22,0,6.39.15,9.35,1.61a1.6,1.6,0,0,0,.36,0c-.21-.84-.4-1.63-.61-2.41l-5.28-19.77c-.09-.35-.18-.69-.24-1a2.75,2.75,0,0,1,2.19-3.37c2.08-.63,4.18-1.17,6.28-1.73q10.44-2.8,20.89-5.57c2.38-.63,3.64.11,4.29,2.46,3.87,14.05,7.79,28.1,11.57,42.18q9.07,33.79,18,67.62c.11.4.2.8.28,1.2.41,2-.23,3.16-2.19,3.8-1.2.4-2.43.7-3.64,1.06a4.8,4.8,0,0,0-.74.37Zm13.85,6h-.82q-80.19,0-160.37,0c-.82,0-1,.31-.95,1,0,3.12,0,6.24,0,9.36,0,.86.29,1,1.1,1q80,0,160,0h1ZM453.93,201h1.2q38,0,75.92,0a24.18,24.18,0,0,0,3.78-.3,11.4,11.4,0,0,0,9.17-8.59,11.83,11.83,0,0,0-4.22-11.94,13.09,13.09,0,0,0-8.1-2.39q-37.67,0-75.34,0c-.71,0-1.41.11-2.28.18a23.65,23.65,0,0,1,3.25,11.48A24.05,24.05,0,0,1,453.93,201Zm-8.64-29H523.1a17.59,17.59,0,0,0,2.39-.14,11.09,11.09,0,0,0,9.63-8.17c1.44-4.54.14-8.56-3.27-11.82-2.53-2.42-5.75-3.13-9.16-3.13H447.42c-.47,0-.94,0-1.41,0a3.88,3.88,0,0,0-.66.18,23.51,23.51,0,0,1,3.25,11.48A24.07,24.07,0,0,1,445.28,172Zm8.61-29h78.48a15.24,15.24,0,0,0,2.3-.18,11.6,11.6,0,0,0-2.09-23q-38.53,0-77.07,0c-.45,0-.89.09-1.51.16C458.43,127.73,458.44,135.33,453.89,143.09Zm107.46,29.09c.38-.07.62-.1.86-.17l20.56-5.51c1.07-.29,1.07-.29.78-1.37L571.3,118.77c-.26-1-.54-1.94-.82-3L548,122Zm-24.66.32c6.17,1.83,10.49,5.51,12.49,11.62s.49,11.59-3.29,16.68h17.36l-16-59.79a19.24,19.24,0,0,1-10.51,7.41c2.86,3.63,4.63,7.49,4.63,12S539.54,168.88,536.7,172.49Zm54.46,21.86a1.65,1.65,0,0,0,0-.36c-.92-3.48-1.86-7-2.77-10.45-.13-.49-.36-.5-.78-.39q-10.55,2.85-21.11,5.66c-.55.15-.61.36-.47.87.9,3.29,1.79,6.58,2.62,9.88.19.75.49.81,1.14.62,4.32-1.21,8.64-2.38,13-3.56Zm-28-106.25a6.54,6.54,0,0,0-.71.1q-10.63,2.87-21.26,5.73c-.59.16-.65.39-.5.94.87,3.15,1.7,6.32,2.55,9.48a4.94,4.94,0,0,0,.25.62,1.42,1.42,0,0,0,.26,0l20.87-5.61a1.4,1.4,0,0,0,1-1.79c-.13-.62-.3-1.23-.47-1.84Zm0,89.71c.35,1.41.67,2.71,1,4,.44,1.81.44,1.82,2.24,1.33,6.55-1.78,13.09-3.58,19.65-5.34.67-.18.81-.43.6-1.1-.4-1.25-.72-2.54-1-3.82-.16-.69-.42-.85-1.14-.66-6.08,1.61-12.18,3.17-18.27,4.75C565.19,177.24,564.19,177.53,563.14,177.81Zm-16.48-61.35L569,110.37c-.44-1.65-.88-3.21-1.27-4.77-.15-.62-.38-.76-1-.58-4.37,1.23-8.75,2.4-13.12,3.59l-7.64,2.08c-.32.09-.78.11-.64.65C545.72,113,546.18,114.68,546.66,116.46Z" transform="translate(-52.82 -68.01)"/><path class="cls-1" d="M203.85,190.67c.43.79.73,1.38,1.06,1.94L222.59,222a4.61,4.61,0,0,1,.89,3.5,3.62,3.62,0,0,1-2.59,2.85,3.33,3.33,0,0,1-3.78-1.16,33.7,33.7,0,0,1-2.23-3.48q-6.34-10.52-12.66-21.06a16.85,16.85,0,0,0-1.06-1.42l-.24.08c0,.28-.08.57-.08.85q0,10,0,20c0,1.07,0,2.15-.06,3.21a3.63,3.63,0,0,1-7.16.35,16.11,16.11,0,0,1-.19-2.79c0-6.84,0-13.69,0-20.54a10,10,0,0,0-.1-1l-.26-.08c-.25.36-.53.72-.76,1.1l-9.92,16.52c-1.48,2.46-2.93,4.93-4.42,7.38-1.16,1.92-3,2.66-4.75,2a3.71,3.71,0,0,1-1.9-5.46c1.57-2.75,3.24-5.45,4.87-8.17l13.31-22.21c.32-.53.6-1.08,1-1.81H159.82c-4.85,0-7.89-3-8-7.78,0-3.28,0-6.57,0-9.85,0-.16,0-.32,0-.61l3.7.87c.78.19,1.55.39,2.32.59,1.19.31,1.35.51,1.36,1.78,0,2.07,0,4.14,0,6.21,0,1.26,0,1.27,1.28,1.27h73.11c1.28,0,1.28,0,1.28-1.26q0-28.94,0-57.88c0-1.23,0-1.24-1.19-1.24H159.4v9.29a2.19,2.19,0,0,1-.46-.09c-2.12-1.06-4.24-2.11-6.34-3.21a1.36,1.36,0,0,1-.71-.89,43.76,43.76,0,0,1,.13-6.44c.54-3.89,3.4-6.2,7.34-6.22,8.64,0,17.27-.1,25.91-.1,12.42,0,24.84.07,37.25.09,3.7,0,7.39-.1,11.09-.08a14.37,14.37,0,0,1,3.34.47,7.66,7.66,0,0,1,5.42,5.11,2.54,2.54,0,0,1,.12.89c0,20.87,0,41.73-.05,62.6a6.43,6.43,0,0,1-3.89,5.57,8.23,8.23,0,0,1-3.55.88c-10,.07-19.93,0-29.89,0Z" transform="translate(-52.82 -68.01)"/><path class="cls-1" d="M121.66,77.32c12.73-.08,22.49,10.6,22.48,22.81,0,12.66-10.87,22.58-22.89,22.42a22.62,22.62,0,1,1,.41-45.23Zm-.1,7.52a15.18,15.18,0,0,0-15.29,15,15.16,15.16,0,1,0,30.33.11A15,15,0,0,0,121.56,84.84Z" transform="translate(-52.82 -68.01)"/><path class="cls-1" d="M741.61,104.9v4.39h-4.42V104.9Z" transform="translate(-52.82 -68.01)"/><path class="cls-1" d="M725.43,93.07c1.32,0,2.58,0,3.83,0a.75.75,0,0,1,.49.54c0,1.12,0,2.25,0,3.38,0,.2-.31.54-.48.55-1.26,0-2.52,0-3.84,0Z" transform="translate(-52.82 -68.01)"/><path class="cls-1" d="M737.18,85.61V81.35h4.42v4.27Z" transform="translate(-52.82 -68.01)"/><path class="cls-1" d="M701.36,93.13v4.42h-4.26V93.13Z" transform="translate(-52.82 -68.01)"/><path class="cls-1" d="M727.91,86.9l3.13-3,3.13,2.94L731,89.76Z" transform="translate(-52.82 -68.01)"/><path class="cls-1" d="M706.47,93.11h4.37c0,1.35,0,2.67,0,4,0,.14-.32.37-.49.38-1.1,0-2.2,0-3.3,0-.19,0-.52-.28-.53-.43C706.45,95.75,706.47,94.46,706.47,93.11Z" transform="translate(-52.82 -68.01)"/><path class="cls-1" d="M715.92,93.11h4.36c0,1.34,0,2.63,0,3.91,0,.16-.33.44-.51.45-1.1,0-2.2,0-3.3,0a.75.75,0,0,1-.5-.53C715.9,95.69,715.92,94.46,715.92,93.11Z" transform="translate(-52.82 -68.01)"/><path class="cls-1" d="M751.31,93.07c2.16,0,2.16,0,2.16,2.15s0,2.28-2.3,2.28c-2.14,0-2.14,0-2.14-2.17S749,93.07,751.31,93.07Z" transform="translate(-52.82 -68.01)"/><path class="cls-1" d="M750.74,103.87l-3.07,2.85-2.9-3.13,3-3Z" transform="translate(-52.82 -68.01)"/><path class="cls-1" d="M730.89,100.74l3.12,3-3,3-2.88-3.18Z" transform="translate(-52.82 -68.01)"/><path class="cls-1" d="M750.61,87.13l-3.09,2.78L744.8,87l3.09-3.05Z" transform="translate(-52.82 -68.01)"/><path class="cls-2" d="M330.89,96.36c12.72,0,25.45-.07,38.17,0,7.22.05,12.7,3.4,16.46,9.53a18.59,18.59,0,0,1,2.61,9.94c0,22.36,0,44.71,0,67.07A19.27,19.27,0,0,1,373,202a22.34,22.34,0,0,1-4.42.44c-25.14,0-50.29,0-75.43,0A19.37,19.37,0,0,1,274,186.72a19.84,19.84,0,0,1-.29-3.62c0-22.47,0-44.94,0-67.4a19,19,0,0,1,19.39-19.33Q312,96.35,330.89,96.36ZM332.2,197.1c.56,0,.9.08,1.24.08H368a18.31,18.31,0,0,0,2.64-.15,14,14,0,0,0,12.17-14.16c0-13.8,0-27.6,0-41.4,0-.83-.22-1.09-1.07-1.09q-21.32,0-42.64,0a7.6,7.6,0,0,0-1,.12c0,1.18,0,2.25,0,3.33,0,.83,0,1.6-1.17,1.54v16.71c0,1.58-.13,1.71-1.74,1.76-.16,0-.31,0-.57.07,0,.77,0,1.51,0,2.25s-.4,1.1-1.1,1.15c-.37,0-.75,0-1.22,0v1q0,2,0,4c0,.48.05,1-.66,1s-.6-.58-.62-1c0-.72,0-1.44,0-2.15v-2.8c-.46,0-.79,0-1.11,0-.88,0-1.18-.33-1.2-1.21,0-.52,0-1,0-1.57s-.2-.71-.74-.71c-1.4,0-1.54-.17-1.54-1.59q0-8,0-16c0-.45.12-1-.61-1-.15,0-.35-.46-.36-.71,0-1-.06-2.1,0-3.15,0-.78-.25-1-1-1q-22.31,0-44.63,0c-.81,0-1,.28-1,1.06,0,14,0,27.93,0,41.89a12.85,12.85,0,0,0,1.67,6.41,14,14,0,0,0,12.93,7.43c8.06,0,16.12,0,24.18,0,.26,0,.52,0,.8,0,0-.14,0-.21-.07-.23l-.56-.34a39.51,39.51,0,0,1-9.57-8.08,1.51,1.51,0,0,1-.32-1.82c.37-.71,1-.73,1.72-.67a3.62,3.62,0,0,0,1.38,0,19.67,19.67,0,0,0,3.82-1.47,34.35,34.35,0,0,0,3.92-2.89c3.36-2.65,7-3.28,10.87-1.3a4.33,4.33,0,0,0,.67.19V173.9h2.86c0,.92,0,1.77,0,2.63s.07,1.77,0,2.65a10.3,10.3,0,0,1-.5,2.49c-.65,1.81-2.25,2.66-4.13,1.46a5.93,5.93,0,0,0-6.84.1,22.24,22.24,0,0,0-1.91,1.44,19.94,19.94,0,0,1-6.75,3.91,1.62,1.62,0,0,0-.36.25c3,2.85,6,5.38,10,6.65a8.65,8.65,0,0,0,9.11-1.93c.49-.45.92-1,1.52-1.6a5.64,5.64,0,0,0-.71,0,25.51,25.51,0,0,1-11-.43c-.63-.16-1.14-.42-1.23-1.15-.16-1.24.66-1.89,2-1.68a43.76,43.76,0,0,0,5.3.68A24.7,24.7,0,0,0,338.83,187a1.47,1.47,0,1,1,1.19,2.67,9.69,9.69,0,0,1-1.23.49,2.78,2.78,0,0,0-1.7,1.44,16.52,16.52,0,0,1-3.91,4.67Zm6-59.65h1q21.28,0,42.56,0c.84,0,1.08-.22,1.07-1.06,0-6.84,0-13.69,0-20.53a14.92,14.92,0,0,0-.41-3.43,13.94,13.94,0,0,0-13.88-10.8H293.2a15.19,15.19,0,0,0-2.14.14,14.05,14.05,0,0,0-12.1,14q0,10.27,0,20.54c0,1.17,0,1.17,1.18,1.17h43.8c1.82,0,1.6.26,1.62-1.63,0-.57-.12-1.2.74-1.31.11,0,.24-.35.24-.54,0-1.38,0-2.76,0-4.14,0-.48-.21-.62-.66-.61-.66,0-1.33,0-2,0a1.55,1.55,0,0,1-1.66-1.4,1.49,1.49,0,0,1,1.59-1.83c1.54,0,3.09,0,4.64,0,.42,0,.75,0,.75-.62,0-3.31,0-6.62,0-9.94,0-.2-.35-.53-.56-.56-.57-.08-1.16,0-1.73,0a1.06,1.06,0,0,1-1-1.24,1,1,0,0,1,1.05-1.12q4.84,0,9.69,0a1,1,0,0,1,1.12,1.16,1.09,1.09,0,0,1-1.08,1.21,7.29,7.29,0,0,1-1.49,0c-.68-.07-.85.25-.85.86q0,4.72,0,9.44c0,.66.25.87.88.86,1.57,0,3.15,0,4.72,0a1.55,1.55,0,0,1,1.3,2.28,1.7,1.7,0,0,1-1.71.93c-.79,0-1.58,0-2.37,0v5.32c.92,0,1.16.44,1.1,1.21C338.19,136.27,338.22,136.79,338.22,137.45Zm-7.62,20.36q0,.15,0,.3h-1.69c-.45,0-.64.19-.63.65,0,.83,0,1.66,0,2.48s.27.82.88.81c1.71,0,3.41,0,5.12,0,1,0,1,0,1.05-1q0-6.37,0-12.75c0-6.07,0-12.14,0-18.22,0-.66-.16-.93-.87-.9-1.24.05-2.48,0-3.73,0-.79,0-1.88-.21-2.28.2s-.11,1.51-.18,2.3.24.8.82.77,1.43,0,2.15,0c0,.09,0,.19,0,.28-.7,0-1.4,0-2.11,0s-.92.16-.87.85a10.9,10.9,0,0,1,0,2.07c-.1.87.26,1.11,1.07,1.07,1-.06,2.05,0,3.08,0,0,.07,0,.15,0,.22-.2,0-.4.06-.6.06-.94,0-1.88,0-2.81,0-.51,0-.76.12-.73.69,0,1,0,2,0,3.06,0,.56.21.72.73.69.74,0,1.49,0,2.24,0,0,.09,0,.19,0,.28-.7,0-1.4,0-2.1,0s-.93.15-.87.84a9.6,9.6,0,0,1,0,1.74c-.06.7.23.93.9.9.85,0,1.71,0,2.57,0q0,.14,0,.29h-3.4v3.45h2.26v.25c-.54,0-1.08,0-1.61,0s-.74.21-.71.74,0,1.32,0,2c0,1.23,0,1.23,1.21,1.23h2.29c0,.1,0,.21,0,.31h-3.43v4.38Zm-.3-37.47c0,1.21,0,2.43,0,3.64,0,2.22-.42,1.94,2,2,.78,0,1-.28,1-1,0-2.67,0-5.35,0-8,0-2.18,0-2.16-2.22-2.14-.62,0-.81.22-.8.82C330.31,117.2,330.29,118.77,330.29,120.34Zm.39,43.49v1.71c.54,0,1,0,1.47,0,.7.05.88-.27.89-.93s-.31-.83-.9-.79S331.21,163.84,330.68,163.84Z" transform="translate(-52.82 -68.01)"/><path class="cls-1" d="M264,96.23c.57-7.25,3.88-12.8,10.24-16.42A21.88,21.88,0,0,1,283.94,77c.63,0,1.26-.13,1.89-.13,1.21,0,1.88.62,1.89,1.7s-.62,1.65-1.88,1.66a19.19,19.19,0,0,0-13.45,5,15.71,15.71,0,0,0-5,10.29c0,.38-.11.76-.13,1.15-.08,1.21-.7,1.84-1.79,1.79s-1.47-.62-1.46-1.87C264,96.45,264,96.34,264,96.23Z" transform="translate(-52.82 -68.01)"/><path class="cls-1" d="M500.94,192.18H469.06c-1.84-.06-2.79-1-2.76-2.78a2.51,2.51,0,0,1,2.84-2.77h63.17c1.74,0,2.69.47,3,1.64.61,2.26-.28,3.92-2.85,3.92Z" transform="translate(-52.82 -68.01)"/><path class="cls-1" d="M492.14,157.64h30.54a10,10,0,0,1,2,.17c1.73.35,2.28,1.11,2.23,2.9a2.46,2.46,0,0,1-2.42,2.46,16.41,16.41,0,0,1-2.22.16H461.82a13.18,13.18,0,0,1-2.06-.17,2.78,2.78,0,0,1,.35-5.5c.52,0,1,0,1.57,0Z" transform="translate(-52.82 -68.01)"/><path class="cls-1" d="M500.92,128.61q15.15,0,30.3,0a10.49,10.49,0,0,1,2.46.24c1.43.35,1.95,1.34,1.79,3.16a2.28,2.28,0,0,1-2.21,2.17,21.77,21.77,0,0,1-2.47.17H470.7a16.23,16.23,0,0,1-2.3-.18,2.32,2.32,0,0,1-2.1-2.54c-.05-1.62.54-2.54,1.95-2.8a14.49,14.49,0,0,1,2.63-.22Q485.9,128.6,500.92,128.61Z" transform="translate(-52.82 -68.01)"/><path class="cls-1" d="M558.86,127.76a2.75,2.75,0,0,1,2.12-2.89,2.85,2.85,0,0,1,3.27,2.16c.48,1.49.86,3,1.26,4.53q3.72,13.82,7.45,27.64a4,4,0,0,1-.37,3.4,2.33,2.33,0,0,1-3.74.5,5.3,5.3,0,0,1-1.29-2.24c-1.6-5.78-3.13-11.58-4.67-17.37Q561,136.24,559.06,129A12.28,12.28,0,0,1,558.86,127.76Z" transform="translate(-52.82 -68.01)"/><path class="cls-2" d="M334,156.76V143.71h0v13.06Z" transform="translate(-52.82 -68.01)"/><path class="cls-2" d="M332.39,121.31v-4.09h0v4.09Z" transform="translate(-52.82 -68.01)"/><path class="cls-1" d="M730.52,407.76c-1.73-.28-3.45-.58-5.19-.82a66,66,0,0,1-27.78-10.29c-16.35-10.87-26.94-25.78-31-45.16a65,65,0,0,1-1.38-18.65c1.3-15.52,6.71-29.44,17-41.33a4.39,4.39,0,0,1,1.38-1.06,2,2,0,0,1,2.42.5,1.93,1.93,0,0,1,.45,2.33,7.54,7.54,0,0,1-1.09,1.64,65.42,65.42,0,0,0-14.57,31.45,63.91,63.91,0,0,0,8.48,44.83c10.23,17,25.26,27.13,44.65,30.83,34.29,6.55,68.15-15.76,75.71-50.25,5-22.68-.8-42.74-16.54-59.72a62.34,62.34,0,0,0-40.32-20c-18.56-1.94-35.13,3.19-49.57,15.07a11.82,11.82,0,0,1-1,.75,2.33,2.33,0,0,1-3.27-.25,2.22,2.22,0,0,1,.45-3.31c2.65-2.09,5.29-4.24,8.11-6.09a68.33,68.33,0,0,1,31.24-10.88,63.31,63.31,0,0,1,11.35-.22c19.82,1.66,36.43,9.75,49.36,25.06a67.54,67.54,0,0,1,15.93,37.24,70.53,70.53,0,0,1,.4,12.66c-2.65,35.27-28.51,58.64-55.46,64.08-2.88.58-5.81.93-8.71,1.39a4.44,4.44,0,0,0-.69.23Z" transform="translate(-52.82 -68.01)"/><path class="cls-1" d="M736.15,276c16.26,0,30,6,41.78,17.09a59.1,59.1,0,0,1,18.31,35.34c2.37,16.09-1.24,30.8-10.59,44.1-1,1.47-2.08,3-3.24,4.32a3.57,3.57,0,0,1-2,1.21,2.13,2.13,0,0,1-2-3.25,25.93,25.93,0,0,1,1.85-2.87c3-4.35,6.16-8.65,8-13.65,5.66-15.09,5.63-30.1-1.33-44.78-8-16.91-21.33-27.72-39.52-31.6-18.87-4-35.91.54-50.27,13.74a54.53,54.53,0,0,0-17.26,30.1c-3.41,17.32.33,33,11.23,46.88a54.56,54.56,0,0,0,37.79,21.09c15.72,1.85,29.92-2.44,42.36-12.32a16.3,16.3,0,0,1,1.33-1,2.21,2.21,0,0,1,3.15.37,2.27,2.27,0,0,1-.44,3.23,53.5,53.5,0,0,1-11.09,7.57c-18.46,9.23-37.21,10-55.79.8-15.11-7.48-25.94-19.21-31.15-35.5-4.77-14.92-4.7-29.85,2-44.21,8-17.22,20.89-29.21,39.5-34.41A64.46,64.46,0,0,1,736.15,276Z" transform="translate(-52.82 -68.01)"/><path class="cls-1" d="M711,329.88l-.8,6.69a8.88,8.88,0,0,1-.13,1c-.35,1.52-1.18,2.18-2.53,2a2.19,2.19,0,0,1-2-2.49,28.69,28.69,0,0,1,2-10.66,35.2,35.2,0,0,1,6.49-9.92,2.3,2.3,0,0,1,3.25-.51c1.06.82,1.22,2,.26,3.32-1.31,1.82-2.73,3.56-4.1,5.34-.2.26-.39.53-.65.89,1,.41,1.88.76,2.77,1.18a1.62,1.62,0,0,0,2.31-.73,20.56,20.56,0,0,1,10.73-8.42,20.88,20.88,0,0,1,27.77,18.31,20.25,20.25,0,0,1-7,17.2L748,354.33l2.18,3.8c1-.84,1.89-1.63,2.82-2.39a5.14,5.14,0,0,1,1.28-.84,2,2,0,0,1,2.5.56,2,2,0,0,1,.26,2.45,5.17,5.17,0,0,1-1,1.29,29.83,29.83,0,0,1-11.93,6.86,6.53,6.53,0,0,1-1.4.22,2,2,0,0,1-2.16-1.5,2,2,0,0,1,.94-2.47,19.64,19.64,0,0,1,2.52-1.08c.68-.27,1.37-.5,2.15-.78-.64-1.13-1.2-2.2-1.85-3.21a1,1,0,0,0-.87-.28c-1.4.3-2.78.7-4.18,1-11.15,2.42-23-6-24.42-17.3a20.86,20.86,0,0,1,.29-7.89,1.21,1.21,0,0,0-.91-1.68C713.19,330.76,712.21,330.34,711,329.88Zm24.5-8.9a16.42,16.42,0,1,0,16.43,16.33A16.58,16.58,0,0,0,735.51,321Z" transform="translate(-52.82 -68.01)"/><path class="cls-1" d="M712.15,376.88A6.7,6.7,0,0,1,708,375.6a37.47,37.47,0,0,1-10.56-10.51A8.12,8.12,0,0,1,699,354.25a8.24,8.24,0,0,1,11.05.43c2.71,2.65,5.43,5.29,8.05,8a8.16,8.16,0,0,1,1.85,9.16A8.41,8.41,0,0,1,712.15,376.88Zm-1.75-5.33.28.18a3.37,3.37,0,0,0,4.45-.81,3.41,3.41,0,0,0-.09-4.7c-1.17-1.16-2.49-2.17-3.68-3.31-.73-.69-1.36-1-2.36-.39a1.88,1.88,0,0,1-2.43-.33,1.92,1.92,0,0,1-.38-2.41c.16-.33.26-.69.45-1,.33-.53.13-.85-.32-1.18a3.5,3.5,0,0,0-4.54.33,3.36,3.36,0,0,0-.59,4.49c1.61,2.12,3.4,4.11,5.13,6.17,1.26-.76,2.31-1.9,3.78-.79S710.84,370.21,710.39,371.55Z" transform="translate(-52.82 -68.01)"/><path class="cls-1" d="M782.42,342.39a41.72,41.72,0,0,1-4.06,14.51,8.05,8.05,0,0,1-10.27,3.55,8.33,8.33,0,0,1-4.8-10c.93-3.51,1.86-7,2.81-10.53,1.09-4,5-6.87,8.8-6.32A8.54,8.54,0,0,1,782.42,342.39Zm-11.65-1.17c.56.32,1.22.5,1.53.93a3.16,3.16,0,0,1,.72,2c-.09.57-.79,1.13-1.34,1.53-.35.25-.93.15-1.38.29a1.16,1.16,0,0,0-.7.51c-.68,1.78-1.38,3.56-1.91,5.39a3.59,3.59,0,0,0,2.48,4.43,3.18,3.18,0,0,0,4.09-2c-1-.78-2.17-1.5-1.62-3.1.67-1.94,2.36-1.27,3.79-1.37.42-2.55.85-5,1.24-7.55a3.5,3.5,0,1,0-6.92-1.06Z" transform="translate(-52.82 -68.01)"/><path class="cls-1" d="M766.91,322.49a8.54,8.54,0,0,1-5.9-2.42q-4.08-4-8.07-8a8.39,8.39,0,0,1-1.08-10.54c2.14-3.17,6.47-4.65,9.82-3a26.47,26.47,0,0,1,5.14,3.56,35,35,0,0,1,6.84,7.74c3.2,4.79,0,11.24-4.7,12.34C768.29,322.29,767.59,322.37,766.91,322.49Zm-2.19-16.28c-1.21.6-2.22,1.81-3.67.84-1.61-1.07-.86-2.5-.45-3.81-1.8-1.11-3.46-.89-4.68.58a3.38,3.38,0,0,0,.21,4.86c1.51,1.44,3.13,2.77,4.68,4.14l.77-.41c1-.48,1.92-.76,2.84.12a2.13,2.13,0,0,1,.28,2.81c-.1.2-.16.42-.28.6-.36.56-.17.92.33,1.27a3.48,3.48,0,0,0,4.53-.42,3.42,3.42,0,0,0,.39-4.69C768.1,310.08,766.38,308.16,764.72,306.21Z" transform="translate(-52.82 -68.01)"/><path class="cls-1" d="M696.52,336.52c.9-13.34,6.34-24,17.38-31.47a21.41,21.41,0,0,1,2.05-1.29,2.28,2.28,0,0,1,3.2,1c.62,1,.4,2-.82,2.82a41.08,41.08,0,0,0-9.26,7.93,34.28,34.28,0,0,0-7.89,21.07,6.29,6.29,0,0,1-.16,1.31,2.22,2.22,0,0,1-4.32,0A11.27,11.27,0,0,1,696.52,336.52Z" transform="translate(-52.82 -68.01)"/><path class="cls-1" d="M743.77,299a8.26,8.26,0,0,1-16.52-.11,8.26,8.26,0,0,1,16.52.11Zm-4.64-.08a3.56,3.56,0,0,0-3.58-3.65,3.64,3.64,0,0,0-3.66,3.61,3.62,3.62,0,1,0,7.25,0Z" transform="translate(-52.82 -68.01)"/><path class="cls-1" d="M689.19,325.41c0-.13.09-.46.18-.77a53.22,53.22,0,0,1,11.91-20.75c1.11-1.21,2.39-1.4,3.46-.47s1,2.09,0,3.44q-1.75,2.27-3.59,4.47a37.5,37.5,0,0,0-7.31,14.19c-.56,2-1.81,2.75-3.36,2.08A2.1,2.1,0,0,1,689.19,325.41Z" transform="translate(-52.82 -68.01)"/><path class="cls-1" d="M736.65,376.31c-.35,0-.86,0-1.37-.13a2.05,2.05,0,0,1-2-2.21,2.14,2.14,0,0,1,2.05-2.18c.91-.12,1.83-.14,2.74-.2a33.32,33.32,0,0,0,13.63-4l.69-.34c1.56-.71,2.8-.43,3.45.77s.23,2.45-1.31,3.25a56.07,56.07,0,0,1-5.48,2.55A38.68,38.68,0,0,1,736.65,376.31Z" transform="translate(-52.82 -68.01)"/><path class="cls-1" d="M726.38,384.61a2.13,2.13,0,0,1-2.22-2.2,2.24,2.24,0,1,1,4.49,0A2.16,2.16,0,0,1,726.38,384.61Z" transform="translate(-52.82 -68.01)"/><path class="cls-1" d="M721.26,291.79a2.17,2.17,0,0,1,2.29,2.14A2.26,2.26,0,1,1,719,294,2.13,2.13,0,0,1,721.26,291.79Z" transform="translate(-52.82 -68.01)"/><path class="cls-1" d="M52.82,326.61a3.61,3.61,0,0,1,4.06-2.1c.39.05.82-.06,1.2,0,2.83.57,4.42-.71,5.72-3.19,2.5-4.78,2.59-9.38-.14-14-.79-1.34-1.68-2.62-2.48-3.95-1.37-2.25-.18-4.49,2.42-4.49q37.2,0,74.4.05a38.65,38.65,0,0,1,6.38,1.09c-.4-1.54-.84-3.27-1.3-5-1.28-4.79-2.58-9.58-3.85-14.38-.63-2.36,0-3.46,2.39-4.1l23.08-6.21c2.58-.69,3.68,0,4.38,2.61,1,3.82,2,7.66,3.08,11.47,1,3.6,2.24,7.14,3.2,10.76,4.3,16.22,8.52,32.46,12.81,48.68,2.32,8.76,4.72,17.49,7.08,26.24.74,2.74.14,3.78-2.57,4.54a18.81,18.81,0,0,0-3.65,1.3h14.07c3.38,0,3.95.57,3.95,3.92q0,6.4,0,12.8c0,3.13-.68,3.82-3.79,3.82H84.3c-9.24,0-18.48,0-27.71,0-1.86,0-3.22-.48-3.77-2.4V378.43c.85-2.25,1.19-2.48,3.63-2.5a9.18,9.18,0,0,1,1.8,0c2.67.53,4.15-.71,5.4-3a13.94,13.94,0,0,0,.13-14.17c-1.4-2.66-3.11-4.11-6.2-3.46a11.31,11.31,0,0,1-1.35,0,3.2,3.2,0,0,1-3.42-1.92v-1.51c1.34-2.15,2.83-4.21,4-6.46a10.84,10.84,0,0,0,.52-9.29,80.18,80.18,0,0,0-4.49-8ZM201.9,381.13H58.18v10.08H201.9ZM67.84,355.42c4,6.9,3.94,13.63,0,20.51h56.46c4.27,0,8.53.05,12.8,0,7.7-.12,12.6-6.67,10.29-13.67-1.4-4.24-5.42-6.9-10.57-6.9q-33.73,0-67.47,0C69,355.34,68.56,355.38,67.84,355.42Zm-7.73-25.76a20.87,20.87,0,0,1,3,10.27,21.49,21.49,0,0,1-2.95,10.27H129c.7,0,1.41,0,2.11-.08A10.24,10.24,0,0,0,140,337.54c-1.33-5-5.25-7.89-10.72-7.89q-33.8,0-67.59,0Zm7.71-5.13h68.9a15.92,15.92,0,0,0,2-.07,9.9,9.9,0,0,0,8.54-6.46,9.77,9.77,0,0,0-2.08-10.75c-2.19-2.42-5-3.27-8.26-3.26q-33.66,0-67.33,0H67.83C71.83,310.89,71.83,317.62,67.82,324.52ZM183,345l-11.81-44.68-19.91,5.5,11.85,44.5Zm-41.92-15.78a15.82,15.82,0,0,1,4.3,10.77,16.14,16.14,0,0,1-4.22,10.56c5.6,1.64,9.42,5,11.17,10.42s.41,10.31-3,14.79h15.41l-14.23-53A16.38,16.38,0,0,1,141.08,329.26ZM187,360l-19.81,5.31,2.69,10.09L189.6,370ZM167.24,285.4l-2.56-9.67-20,5.4,2.6,9.63Zm18.44,69.71-1.33-4.86-19.64,5.1,1.27,5.14ZM148.78,296l1.28,4.87,19.76-5.38-1.3-4.88Z" transform="translate(-52.82 -68.01)"/><path class="cls-1" d="M109.44,363.06q13.84,0,27.69,0c2.18,0,3.19.94,3.09,2.77a2.28,2.28,0,0,1-2,2.28,5.83,5.83,0,0,1-1.2.07H81.94c-2.2,0-3.2-.77-3.25-2.46a2.36,2.36,0,0,1,2.16-2.61,10.38,10.38,0,0,1,1.5-.05Z" transform="translate(-52.82 -68.01)"/><path class="cls-1" d="M101.75,337.4h27.54c2.05,0,2.88.55,3.18,2a2.35,2.35,0,0,1-1.84,2.94,8.67,8.67,0,0,1-1.94.16q-26.94,0-53.88,0a9,9,0,0,1-2.08-.2,2.51,2.51,0,0,1,.28-4.86,13,13,0,0,1,1.8-.07Z" transform="translate(-52.82 -68.01)"/><path class="cls-1" d="M109.44,316.82H82.65a13.32,13.32,0,0,1-1.8-.09,2.49,2.49,0,0,1-.1-4.93,11,11,0,0,1,1.8-.12h53.87a9.93,9.93,0,0,1,1.94.15,2.22,2.22,0,0,1,1.86,2.52,2.18,2.18,0,0,1-1.9,2.33,12.4,12.4,0,0,1-2.1.13Z" transform="translate(-52.82 -68.01)"/><path class="cls-1" d="M173.66,339.94a2.52,2.52,0,1,1-5,.74c-1.07-3.86-2.1-7.74-3.13-11.61q-2.19-8.21-4.36-16.41a10.42,10.42,0,0,1-.28-1.17,2.5,2.5,0,1,1,4.85-1.18q4,14.5,7.84,29A3.34,3.34,0,0,1,173.66,339.94Z" transform="translate(-52.82 -68.01)"/><path class="cls-1" d="M487,399.81c-1.6,0-2.4-.76-2.74-2.47a11.78,11.78,0,0,1-.13-2.27V372.5q0-44,0-88c0-12.55,7.8-20.36,20.32-20.4q15.9,0,31.79,0,16.08,0,32.16,0c11.32,0,19.57,8.29,19.61,19.63,0,13.41,0,26.91,0,40q0,8.09,0,16.18v18.29q0,19.23,0,38.46c0,.24,0,.65,0,1.05l-.89-.42-1.18-.55c-2.65-1.23-4.57-2.11-5-4.88-.31-2.17-2.21-3.33-3.6-4.17l-.4-.24-12.06-7.49q-12.2-7.57-24.39-15.17a8.24,8.24,0,0,0-4.44-1.39,8.45,8.45,0,0,0-4.53,1.42c-12.9,8.05-25.53,15.86-37.25,23.09A7.33,7.33,0,0,0,490.6,394a28,28,0,0,1-.5,3.61c-.3,1.58-1.08,2.17-2.89,2.17Zm91.37-63.21a6.93,6.93,0,0,0-3.54,1.36l-9.65,6-.4.25c-5.71,3.55-11.62,7.22-17.45,10.78-.9.55-2.58,1.57-2.59,3.35s1.69,2.83,2.41,3.29q7.33,4.59,14.64,9.23l1.57,1q6.21,3.93,12.42,7.84a5.67,5.67,0,0,0,3,1.16c2.74,0,2.76-3.19,2.77-4.39,0-4.12,0-8.24,0-12.36v-4.14l0-.87v-5.48c0-4,0-8,0-11.93C581.49,340.27,581.47,336.6,578.34,336.6Zm-84.74-.2c-2.95,0-3,3.43-3,4.9,0,4.1,0,8.21,0,12.31v4.19q0,2.47,0,4.94c0,3.88,0,7.88,0,11.86.07,4.47,2.31,5.14,3.64,5.14a6.49,6.49,0,0,0,3.27-1.12c6.27-3.79,12.61-7.71,18.74-11.5l9.09-5.61c.54-.33,2.17-1.33,2.17-3.07s-1.66-2.77-2.2-3.1q-7.29-4.5-14.56-9-7-4.34-13.95-8.66A6.27,6.27,0,0,0,493.6,336.39Zm42.21,17.2.45,0a8.29,8.29,0,0,0,4.54-1.69l.5-.32q15.8-9.8,31.59-19.67c1.5-.94,3-2.14,3-4s-1.58-3-3.11-3.94q-8.63-5.21-17.29-10.36-8.23-4.92-16.43-9.85a6,6,0,0,0-3.13-1,6.06,6.06,0,0,0-3.22,1q-10.15,6.19-20.34,12.32l-.42.25-12.88,7.78c-1.56.94-3.08,2-3.09,3.72s1.49,2.8,3,3.77q11,6.88,22,13.72l11.14,6.94a6.93,6.93,0,0,0,3.69,1.22Zm41.41-75.78a7.92,7.92,0,0,0-4,1.37c-5.33,3.2-10.71,6.51-15.91,9.71-3.42,2.1-6.8,4.18-10.19,6.24-.74.45-2.28,1.39-2.28,3.06s1.58,2.65,2.17,3q7.29,4.46,14.54,9,6.62,4.11,13.26,8.2a6.88,6.88,0,0,0,3.47,1.32c3.12,0,3.16-3.6,3.18-5.14,0-3.61,0-7.23,0-10.74v-6.44h0v-2.88c0-3.46,0-7,0-10.58C581.39,278.88,579.12,277.82,577.22,277.82Zm-82.62,0c-1.78,0-3.9,1-3.95,5.72,0,3.56,0,7.13,0,10.69v3.7l0,.89c0,1.6,0,4.91,0,4.91,0,3.81,0,7.75,0,11.63,0,3.56,1.64,4.3,3,4.3a5.73,5.73,0,0,0,2.91-1.05c7.62-4.6,16.19-9.77,24.61-15,3.66-2.26,5.49-3.39,5.49-5.43s-1.83-3.17-5.46-5.41c-7.19-4.44-14.95-9.18-22.91-13.78A7.54,7.54,0,0,0,494.6,277.83Zm7.65-4.69a7.36,7.36,0,0,0,3.45,3.14c.24.12.46.24.68.37q4.44,2.71,8.89,5.38c5.28,3.18,10.7,6.45,16,9.76a8.91,8.91,0,0,0,4.78,1.55,8.77,8.77,0,0,0,4.67-1.49c4.8-3,9.72-6,14.49-8.82l.1-.06,8.23-5c1.37-.84,2.68-1.69,4.19-2.67l2.29-1.48,5.34-3.43H500.8Z" transform="translate(-52.82 -68.01)"/><path class="cls-1" d="M350.57,403.85l-35.38-35.09-.46,1.08c-.15.35-.32.76-.52,1.16a2.59,2.59,0,0,1-2.28,1.63,3,3,0,0,1-1.84-.72,12.78,12.78,0,0,1-1-.92l-13.6-13.6c-1.4-1.4-2-2.41-2-3.28s.78-1.83,2.36-3.1l.22-.2.56-.52L252.22,305.5v-2l1.12-1.15c.94-1,1.88-1.93,2.83-2.88l45.11-45.11c.87-.87,1.75-1.72,2.62-2.57l1.07-1h2l44.94,44.65.34-.46.27-.37c.24-.34.54-.76.87-1.15a3.27,3.27,0,0,1,2.37-1.37,3.18,3.18,0,0,1,2.17,1.09c5.54,5.47,10.48,10.41,15.09,15.09a3,3,0,0,1,1.08,2.6,3.17,3.17,0,0,1-2.08,2.08l-.7.31-1.08.49.84.91c.23.25.44.48.66.7L382,325.61l19.07,19.08c1.19,1.19,2.37,2.45,3.46,3.63a2.08,2.08,0,0,1,0,3.27c-1,1.09-1.91,2.08-2.87,3q-22.93,23-45.89,45.89c-.8.8-1.62,1.58-2.44,2.36l-1,1Zm12.94-88.09a4.09,4.09,0,0,0-1.24.21l-.12,0c-3,1-6.15,2-9.25,2.81a3.62,3.62,0,0,0-2.76,2.68q-1.39,4.64-2.82,9.27-1.37,4.47-2.72,8.94a4.75,4.75,0,0,1-3.45,3.45c-3.5,1-7,2.11-10.49,3.18l-7.84,2.39a3.41,3.41,0,0,0-2.49,2.5l-.14.47c-.85,2.93-1.73,6-2.76,8.88a3.51,3.51,0,0,0,1,4.12q12.13,12,24.22,24.14l7.21,7.2.54.52.57.53,47.54-47.54-.58-.61c-.21-.22-.44-.46-.68-.7l-7.54-7.53q-11.94-11.91-23.85-23.85A3.25,3.25,0,0,0,363.51,315.76Zm-62.75,38.69,9.92,10.28.41-1.12c.08-.22.15-.4.21-.58q.66-2.12,1.32-4.23c1.13-3.6,2.3-7.32,3.37-11a4.65,4.65,0,0,1,3.51-3.46c3.72-1.1,7.49-2.27,11.13-3.39l7.19-2.21a3.19,3.19,0,0,0,2.34-2.31c.79-2.62,1.6-5.23,2.4-7.84,1.09-3.53,2.18-7.05,3.23-10.59a4.65,4.65,0,0,1,3.51-3.47c3.82-1.11,7.54-2.28,11.48-3.52l4.76-1.49.81-.25L355.8,299.08Zm-18.95-27.13,18.53,18.51,21.2-21.21L303,306.05ZM259.1,304.55,277.56,323,299,301.65l-18.61-18.36Zm48.62-2.84,18.4,18.39,21.19-21.19-18.39-18.39Zm-23-22.92L303,297.46l21.33-21.18L305.7,257.61Z" transform="translate(-52.82 -68.01)"/><path class="cls-1" d="M250.8,747.51a2.86,2.86,0,0,1-1.18-2.68c.11-16.79,6.46-31,18.12-42.84,4.51-4.58,9.56-8.63,14.37-12.91.31-.28.64-.54,1.09-.91l-3.43-2.8a109,109,0,0,1-17-16.64,59.06,59.06,0,0,1-12.33-27.66c-.5-3.15-.5-6.38-.79-9.56a2.67,2.67,0,0,1,1.17-2.68h9a3.27,3.27,0,0,1,1.19,2.82A47.75,47.75,0,0,0,269.1,658a66.45,66.45,0,0,0,12.77,14.14c6.86,5.7,13.89,11.18,20.86,16.75,6.61,5.29,13,10.8,18.44,17.36,6.83,8.24,11.51,17.5,13.25,28.11a100.18,100.18,0,0,1,.93,11.05c0,.68-.72,1.4-1.11,2.1h-9A3.22,3.22,0,0,1,324,744.7c0-1.77-.21-3.54-.39-5.31-1-10.17-5.32-18.89-11.88-26.61-5.49-6.46-12.06-11.72-18.68-16.93a1.22,1.22,0,0,0-1.15,0c-3.76,3.09-7.49,6.21-11.22,9.34a10.48,10.48,0,0,0-.76.82h17.85c.38,0,.77,0,1.16,0a1.92,1.92,0,0,1,0,3.84,9.06,9.06,0,0,1-1,0c-7,0-14.06,0-21.09,0a2.28,2.28,0,0,0-1.55.69q-3.09,3.67-6,7.47c-.69.88-1.2,1.89-1.89,3H311.2a6.1,6.1,0,0,1,1.38.06,1.76,1.76,0,0,1,1.51,1.79,1.7,1.7,0,0,1-1.41,1.85,6.49,6.49,0,0,1-1.49.15H292.31c-8.61,0-17.23,0-25.84,0a1.4,1.4,0,0,0-1.6,1.08c-.48,1.46-1.15,2.86-1.6,4.33-.57,1.86-1,3.76-1.53,5.8h3.81c3.05,0,6.1,0,9.15,0a1.87,1.87,0,0,1,.16,3.73,10.21,10.21,0,0,1-1.27.05H261.26c-.09,1.67-.26,3.21-.24,4.74a3.18,3.18,0,0,1-1.18,2.82Zm80.82-4.05c-.2-2-.35-4.16-.61-6.26a52,52,0,0,0-4.67-15.9,64.44,64.44,0,0,0-16.15-21c-6.12-5.36-12.54-10.4-18.91-15.48-6.73-5.38-13.56-10.63-19.38-17A55.55,55.55,0,0,1,260,648.18a52.44,52.44,0,0,1-2.71-14.5c0-.35-.35-1-.59-1a28,28,0,0,0-3.05,0,3.33,3.33,0,0,0-.09.5,54.3,54.3,0,0,0,3.42,17.75c3.2,8.59,8.45,15.82,14.87,22.25a189.11,189.11,0,0,0,17.72,15.08c7.18,5.61,14.48,11.08,21,17.53,9.77,9.71,16.06,21.11,17.18,35.06.08,1,0,2.38.53,2.73.74.47,2,.12,3,.12C331.29,743.65,331.32,743.62,331.62,743.46Zm-78.25.24c1.08,0,1.92,0,2.75,0s1.18-.21,1.18-1.09c0-1,.12-2.08.22-3.11a51.13,51.13,0,0,1,11-26.91,95.18,95.18,0,0,1,14.84-14.74c2-1.64,4-3.25,6-4.92-.82-.63-1.57-1.17-2.27-1.78a.92.92,0,0,0-1.46,0c-4.08,3.54-8.34,6.88-12.27,10.58-10.07,9.46-17.17,20.65-19.2,34.59C253.81,738.71,253.64,741.12,253.37,743.7Z" transform="translate(-52.82 -68.01)"/><path class="cls-1" d="M334.25,628.82a2.86,2.86,0,0,1,1.18,2.68c-.13,15.19-5.38,28.4-15.3,39.82a119,119,0,0,1-13.89,13.27,1.94,1.94,0,0,1-2.88-.08,2,2,0,0,1,.45-2.86c2.64-2.37,5.37-4.66,7.95-7.1a65.56,65.56,0,0,0,14.56-19.45,51.88,51.88,0,0,0,4.7-16c.26-2.09.41-4.2.62-6.4h-3.75c-.11,1.3-.22,2.59-.34,3.88a51.42,51.42,0,0,1-10.92,27.08,98.73,98.73,0,0,1-16.53,16.16c-1.09.88-2.13.82-2.87-.06s-.61-2,.5-2.92c2.43-2.09,4.87-4.16,7.31-6.24,0-.11,0-.21-.06-.32H286.9a5.21,5.21,0,0,1-1.48-.18,1.69,1.69,0,0,1-1.26-1.74,1.68,1.68,0,0,1,1.23-1.75,5.43,5.43,0,0,1,1.59-.2c7.07,0,14.14,0,21.21,0a2.57,2.57,0,0,0,1.66-.72,54.52,54.52,0,0,0,7.89-10.42h-28.8a10.31,10.31,0,0,1-1,0,2,2,0,0,1-1.83-1.78,1.88,1.88,0,0,1,1.6-2,6.89,6.89,0,0,1,1.38-.11c9.85,0,19.7,0,29.55,0a1.45,1.45,0,0,0,1.67-1.14c.92-3.05,1.88-6.1,2.81-9.15a5,5,0,0,0,.08-.93H268c-1.78,0-2.6-.61-2.6-1.91s.84-1.89,2.62-1.89h55.78c.09-1.67.25-3.21.24-4.75a3.14,3.14,0,0,1,1.18-2.82Z" transform="translate(-52.82 -68.01)"/><path class="cls-1" d="M276.64,655.23c-1.19,0-2.39,0-3.58,0a1.89,1.89,0,0,1-2.12-1.8,1.87,1.87,0,0,1,2-2c2.42-.07,4.85-.07,7.27,0a1.92,1.92,0,1,1-.13,3.83C279,655.25,277.8,655.23,276.64,655.23Z" transform="translate(-52.82 -68.01)"/><path class="cls-1" d="M300.07,736.15h17.37c1.49,0,2.3.78,2.21,2a1.67,1.67,0,0,1-1.38,1.63,6.88,6.88,0,0,1-1.5.11H283.29a8.33,8.33,0,0,1-1.27-.07,1.71,1.71,0,0,1-1.58-1.82,1.81,1.81,0,0,1,1.67-1.88,9,9,0,0,1,1,0Z" transform="translate(-52.82 -68.01)"/><path class="cls-1" d="M134.48,755.18c-15.72,0-31.44,0-47.16,0-13.26,0-20-11.7-14.34-23.76,13.82-29.44,27.45-59,40.65-88.69,1.79-4,.81-9.32.83-14,0-.77-1.77-1.42-2.14-2.36-.79-2-2-4.4-1.51-6.16.45-1.51,3.09-3.31,4.8-3.35,12.69-.28,25.39-.3,38.07,0a6.61,6.61,0,0,1,4.89,3.73c.52,1.67-1,4-1.77,6-.61,1.58-1.87,3-2.09,4.6-.89,6.48,1,12.33,3.75,18.24,13,27.74,25.76,55.63,38.62,83.45a15.48,15.48,0,0,1-14.14,22.25C166.79,755.25,150.64,755.18,134.48,755.18ZM119.17,622c1,7.5,2.69,15.44-.32,22.27C105.74,674,91.94,703.46,78.24,733,73.55,743.07,77.79,750,89.09,750H180.4c1,0,2,0,3-.05,7.78-.76,11.89-8.07,8.62-15.14-13.89-30-28-60-41.46-90.24-3.16-7.07-1.56-15-.41-22.63Z" transform="translate(-52.82 -68.01)"/><path class="cls-1" d="M135.29,737.62c-16.47,1.23-32.67-13.81-32.17-29.81a3.8,3.8,0,0,1,2.63-2.61C121.46,704.58,137.12,721.68,135.29,737.62Z" transform="translate(-52.82 -68.01)"/><path class="cls-1" d="M139.68,737c-.93-4.29-1.92-8.31-2.61-12.38a5.85,5.85,0,0,1,.85-3.58c5.54-9.5,14-14.54,24.79-15.9,1.88-.24,3.65-.45,3.79,2.55C167.13,721.12,153.31,736.45,139.68,737Z" transform="translate(-52.82 -68.01)"/><path class="cls-1" d="M134.69,718.66c-2.85-3.05-5.65-5.89-8.23-8.92a4,4,0,0,1-.56-3.1,27.81,27.81,0,0,1,8.76-14.4c4.94,4.08,7.47,9.38,9.08,15.2a3.49,3.49,0,0,1-1,2.55C140.17,712.87,137.5,715.65,134.69,718.66Z" transform="translate(-52.82 -68.01)"/><path class="cls-1" d="M394.15,694.71c2,0,4-.15,6,0a4.59,4.59,0,0,1,4.24,3.54,6,6,0,0,1-1.68,6.35,5.06,5.06,0,0,1-5.63.91,9.24,9.24,0,0,1-4.34-3.83c-1.67-2.56-3.91-4.27-7.09-4.37a5.9,5.9,0,0,0-6.14,7.38,9.22,9.22,0,0,0,5,6.55c2.58,1.32,3.69,4.43,2.8,7.5a5.32,5.32,0,0,1-5.58,3.87c-3.5-.22-5.6-2.85-5.36-6.57a40.51,40.51,0,0,0,.16-6.88,6.25,6.25,0,0,0-6.3-5.81,6.36,6.36,0,0,0-6.43,6.19c-.19,2.58.09,5.19,0,7.78a5,5,0,0,1-5.45,5,5.85,5.85,0,0,1-5.42-3.43,5.19,5.19,0,0,1,1.22-6.09c1.31-1.32,2.78-2.47,4.21-3.67a7.28,7.28,0,0,0,2.73-7.06c-.63-4-4-6-7.88-4.81-3.11.92-5.08,3.23-6.87,5.73a5.19,5.19,0,0,1-5.41,2.18c-3.52-.55-5.47-3.08-5-6.39.41-3,3.68-5.2,7-4.84a34.51,34.51,0,0,0,5.71.25c3.95-.24,6.75-3.16,6.51-6.56a7.19,7.19,0,0,0-7.5-6.41c-2.11.08-4.22.26-6.32.21a5.35,5.35,0,0,1-5.09-4,6.37,6.37,0,0,1,2.57-6.46,4.74,4.74,0,0,1,6.23.29,21.18,21.18,0,0,1,3.19,3.43,10.15,10.15,0,0,0,5.37,3.89,6.07,6.07,0,0,0,6.41-1.88,5.81,5.81,0,0,0,1.16-6.18,12.06,12.06,0,0,0-4.07-5.28,15.6,15.6,0,0,1-3.55-4.18c-1.25-2.26-.59-4.37,1.38-6a6.47,6.47,0,0,1,6.92-.67c2.08,1.07,2.84,2.81,2.66,5.56a37.92,37.92,0,0,0-.11,7.3,6.14,6.14,0,0,0,6.86,5.42,6.37,6.37,0,0,0,5.81-6.19,43.91,43.91,0,0,0-.19-5.58c-.25-3.54,1.1-6,3.85-6.81a6,6,0,0,1,6.4,1.81,5.47,5.47,0,0,1,.19,6.59,12.29,12.29,0,0,1-2.79,2.75c-2.71,2.07-4.92,4.41-4.89,8.09a5.67,5.67,0,0,0,5.91,5.81,8.61,8.61,0,0,0,6.9-3.61,18.72,18.72,0,0,1,4.1-3.92,5.38,5.38,0,0,1,6.67.61,6.23,6.23,0,0,1,1.11,6.84,5.3,5.3,0,0,1-5.63,3.14c-2-.17-4-.48-6-.46-3.69,0-6.43,2.39-6.85,5.65a6.37,6.37,0,0,0,6.06,7.36c.73.07,1.47,0,2.21,0Zm-23.58-3-.51,0c-.7,1.32-1.48,2.6-2.08,4a2.46,2.46,0,0,0,.77,3.16,2.42,2.42,0,0,0,3,0,2.49,2.49,0,0,0,.81-3.26C372,694.26,371.24,693,370.57,691.72Zm3-6.13c2,0,3.54.12,5.07,0a2.36,2.36,0,0,0,2.2-2.21,2.41,2.41,0,0,0-1.47-2.61,2.32,2.32,0,0,0-3,.71C375.39,682.66,374.61,684,373.55,685.59Zm-6.44,0c-.86-1.42-1.54-2.69-2.35-3.87a2.57,2.57,0,0,0-3.33-1.08,2.39,2.39,0,0,0-1.48,2.75,2.53,2.53,0,0,0,2.57,2.18C363.89,685.69,365.26,685.6,367.11,685.6Z" transform="translate(-52.82 -68.01)"/><path class="cls-3" d="M561.8,733.23v-30.7c-16.57-.71-29.09-13.21-29.13-29.47,0-16.46,12.44-29.58,29.13-29.34V607.15c-1.1-.07-2.22-.07-3.36,0-1.84,0-2.71.59-3.08,2.42-.69,3.47-1.64,6.89-2.36,10.36-.32,1.58-1.16,2.1-2.64,2.69-3.66,1.46-6.37.88-8.77-2.34-1.58-2.12-3.7-3.83-5.52-5.78a2.29,2.29,0,0,0-3.25-.57c-8.56,4.44-8.59,4.39-5.82,13.53.37,1.21.74,2.43,1.15,3.62.47,1.34,0,2.27-.85,3.41-2.73,3.5-5.75,5-10,2.76-1.43-.74-3.27-.66-4.73-1.35-3.61-1.7-5.5-.63-7.21,2.95-3.12,6.49-3.45,6.47,2,11.23,3.35,2.94,6.31,5.52,3.76,10.73-.89,1.81-1.58,2.87-3.42,3.34-2.94.76-5.82,1.77-8.78,2.41-1.94.42-2.7,1.21-2.77,3.28-.34,9.59-.41,9.59,9,11.31a2.77,2.77,0,0,0,.38,0c3.25.21,4.76,1.71,5.64,5.11s.38,5.68-2.15,7.94a81.55,81.55,0,0,0-5.81,6c-.6.66-1.78,1.2-.94,2.5,1.72,2.66,3.38,5.36,5.09,8,.7,1.1,1.63.82,2.68.47,2.87-1,5.79-1.84,8.67-2.8,1.68-.56,3.39-1.57,4.74.49,1.6,2.43,5.53,3.55,4,7.79-1.13,3.07-1.64,6.37-2.53,9.53a2.24,2.24,0,0,0,1,2.87c7.33,5.2,8.15,5.15,14.24-1.44a24,24,0,0,0,2.56-2.82c2.19-3.28,4.53-.25,6.76-.2a3.11,3.11,0,0,1,3.4,2.86c.56,3.49,1.49,6.92,2.19,10.4.29,1.47.63,2.77,2.52,2.65,1.46-.09,2.91-.21,4.32-.41v-4.32A5.26,5.26,0,0,1,561.8,733.23Z" transform="translate(-52.82 -68.01)"/><path class="cls-3" d="M633.34,663.06A52.79,52.79,0,0,0,618,656c-.87-.27-2.63-.4-2.07-1.48,1.1-2.1,1-5,4.62-5.61,6.2-1,8.18-7.72,3.79-12.23a3.15,3.15,0,0,1-1.14-2.54c.39-7.34-6.66-12.72-14.9-11.11-6.4,1.25-12,4.36-18.12,7.08,0-2.48-2.85-4.4-.63-6.95s2.65-5.38,1-8.34-4.42-4-7.71-3.44a3.58,3.58,0,0,1-3.44-.72,12.92,12.92,0,0,0-8.35-3.14v36.29c.32,0,.62,0,.94,0,15.41.68,27.5,12.45,27.77,29.17.25,15.43-12.78,29.25-27.19,29.28-.51,0-1-.05-1.52-.07v30.46a6.59,6.59,0,0,0,.08-1.06c-.12-3.77,0-7.54,0-11.3,0-4.27,0-8.55,0-12.82,0-2,.18-3,2.4-1.51,4,2.74,8.17,5.37,12.33,7.94,1.1.68,1.71,1.22,1.25,2.63-1.74,5.24-3.52,10.45-6.78,15a14.07,14.07,0,0,1-2.78,3c-1.63,1.24-3.79,2.16-5.62,1.42a1.43,1.43,0,0,1-.82-.76v4.29c4.75-.65,9.06-2.23,12-7a61.86,61.86,0,0,0,6.08-13.34c.35-1,.46-2.59,2.1-1.75,2,1,4.31,1.3,4.87,4.49,1,5.55,7.74,7.37,11.74,3.32a6.1,6.1,0,0,1,4.55-1.94c4.79-.21,7.64-2.65,8.8-7.32a17.81,17.81,0,0,0,0-8.58,63.27,63.27,0,0,0-5.34-14.06c-.34-.68-1.8-2.07-.18-2.39,2.84-.56,5.39-3,8.82-.52,4.62,3.29,10.56-.14,10.87-5.8.06-1.2-.2-2.3.74-3.5C641.73,673.88,640.85,668.35,633.34,663.06Zm-61.66-23.11c-.21-9.18-.35-18.36-.65-27.54-.08-2.64.86-3.11,3.08-2.11s5.34,1.29,3.09,5.46c-2,3.67,1.4,8.91,5.73,9.08,3,.11,3.37,1.85,4,3.9.78,2.43-.71,3.26-2.47,4.28-4.21,2.43-8.3,5.06-12.46,7.62C571.87,640.34,571.67,640.14,571.67,639.94Zm5.23,1.54c3.39-2.72,7-4.33,10.39-6.13,1.82-1,1.46,1,1.59,1.57.71,3.39,1.2,6.82,1.86,10.74A41.07,41.07,0,0,0,576.9,641.48Zm13.55,58.86c-.59,3.19-1.31,6.36-1.84,9.56-.3,1.8-1.11,1.16-2,.62l-9.8-5.72c4.49-1.71,8.55-3.14,12.17-5.53C590,698.61,590.68,699.07,590.45,700.35Zm3.33-52.74A62.47,62.47,0,0,0,592,636.11c-.83-2.93.29-3.94,2.59-5,5.79-2.7,11.39-5.93,18.11-5.52,3.92.24,6.65,2.6,6.75,5.85.47,2.05-1.47,2.35-2.58,3.05-5.13,3.24-6,7.08-2.19,11.78,2.08,2.57-.64,3.78-1.12,5.59s-1.71,2.12-3.51,1.75c-4.16-.87-8.36-1.59-12.57-2.25C595.26,651,594,650.13,593.77,647.6Zm3.64,7.29c4.59.19,8.54,1.27,12.89,2.12a66.29,66.29,0,0,1-7.42,11A38.63,38.63,0,0,0,597.42,654.89Zm4.94,23.66a44.91,44.91,0,0,1,6.59,8.9c.65,1.06.29,1.61-.88,1.79l-10.36,1.6C599.68,686.84,601.69,683.25,602.36,678.55Zm16.36,33.66a7.89,7.89,0,0,1-2,5.78c-1.11,1.36-2.76,1.65-4.34,2.05-2.75.72-2.19-1.79-2.78-3-2.24-4.57-7.47-6-11.24-2.56-2.21,2-3.47.57-5.23-.14-2-.82-1.92-2.23-1.6-4,.79-4.31,1.54-8.63,2.1-13,.25-1.92.92-2.86,2.94-3.14,4.47-.62,8.92-1.39,13.33-2.28a2,2,0,0,1,2.44,1C615.1,696.87,618.75,707.74,618.72,712.21Zm12.71-34.59a6.69,6.69,0,0,0-10.32,5.26c-.33,4-3.38,3.71-5.74,4.7-2.61,1.09-3.16-1.2-4.18-2.64-2.11-3-4.09-6-6.32-8.93-1.45-1.88-1.66-3.33-.1-5.32,2.86-3.67,5.45-7.55,8.12-11.37.68-1,1.25-1.66,2.71-1.23,6.28,1.88,12.49,3.86,17.72,8,1.91,1.52,3.44,3.3,3.74,5.48a9.19,9.19,0,0,1-1.26,4.69C634.74,677.86,634,679.19,631.43,677.62Z" transform="translate(-52.82 -68.01)"/><line class="cls-4" x1="518.2" y1="539.52" x2="518.2" y2="575.81"/><line class="cls-4" x1="518.2" y1="634.97" x2="518.2" y2="671.26"/><path class="cls-1" d="M113.42,445.59c26.78-1.73,54,22.57,53.55,54-.39,29.07-25.29,53.74-55.36,52.88-27.63-.79-52.84-24.76-52-55.4C60.44,468.46,85.83,443.84,113.42,445.59Zm-3.77,4.55c-24.88.53-45.17,23.82-45,44.92l3.67,3.75-3.78,3.66c.88,26.11,25.14,45.38,45.25,44.93l3.25-3.62,4.19,3.77c24.17-.83,44.43-22.84,44.74-45.19L158.19,499l3.84-4c-1.15-25.66-24.32-44.75-44.92-44.79l-4,3.74Z" transform="translate(-52.82 -68.01)"/><path class="cls-1" d="M85.65,528.57A14.83,14.83,0,0,1,84.43,525c0-.69.75-1.46,1.21-2.15,6.41-9.66,12.79-19.33,19.27-28.93a13.29,13.29,0,0,1,3.53-3.48Q123,480.6,137.62,471c.94-.62,2.42-1.37,3.24-1,2.45,1,1.49,2.74.44,4.32-4.71,7.08-9.73,14-14,21.31a48.7,48.7,0,0,1-17.62,17.48c-7,4.22-13.75,9-20.61,13.54C88.2,527.16,87.3,527.62,85.65,528.57Zm9.94-12.67.57.63L116.54,503l-7.48-7.49Z" transform="translate(-52.82 -68.01)"/><path class="cls-1" d="M421.88,553.19c-27.59-1.31-48.53-13.38-64-36.9a8.19,8.19,0,0,1,0-9.78c13.49-20.67,31.89-32.77,54.68-36a74.74,74.74,0,0,1,10.34-.73c18.09,0,35,7.07,50.29,21A75.51,75.51,0,0,1,486,506.22c2.28,3.59,2.33,6.8.15,10.1-15.47,23.52-36.47,35.58-64.18,36.86h-.06Zm-31.6-69a4.21,4.21,0,0,0-2.58,1.11l-.34.25a78,78,0,0,0-23.67,22.68,5.16,5.16,0,0,0,.07,6.58,86.94,86.94,0,0,0,14.16,15.64c12.82,11,27,16.65,42.25,16.88h1.16c23.84,0,43.2-10.76,59.16-32.89a4.76,4.76,0,0,0,0-6A78.09,78.09,0,0,0,456,485.09l-.17-.12a4.09,4.09,0,0,0-2.48-1,3.53,3.53,0,0,0-1.36.28l-1,.43-.2,1.1a5.67,5.67,0,0,0,.75,3.69,6,6,0,0,1,.34.77c4.19,12.58,2.29,23.21-5.81,32.48-6.33,7.24-14.12,10.92-23.18,10.92a38.11,38.11,0,0,1-7.91-.87A30.66,30.66,0,0,1,394,517.37a33.08,33.08,0,0,1-1.62-27.6l0-.06.16-.26c1.58-2.68.28-4.14-.64-4.78A2.94,2.94,0,0,0,390.27,484.14Zm30.62-7.24c-12.28,0-23.9,11.56-23.91,23.78-.19,3.81,1.91,6.4,5.36,6.63l.44,0c3,0,5.12-2.18,5.58-5.69,1.19-9,4.79-12.56,13.74-13.71,4.86-.62,5.46-3.87,5.38-5.75s-.93-5.08-5.83-5.27Z" transform="translate(-52.82 -68.01)"/><path class="cls-1" d="M421.91,552.5c-27.35-1.3-48.12-13.27-63.48-36.59a7.48,7.48,0,0,1,0-9c13.38-20.5,31.61-32.5,54.19-35.66a74.13,74.13,0,0,1,10.24-.73c17.91,0,34.67,7,49.83,20.82a74.86,74.86,0,0,1,12.68,15.28c2.14,3.38,2.19,6.26.16,9.35C470.2,539.27,449.39,551.23,421.91,552.5Zm-31.64-69a4.86,4.86,0,0,0-3,1.25c-.1.08-.19.16-.29.22a78.64,78.64,0,0,0-23.87,22.87,5.84,5.84,0,0,0,.08,7.37,87.59,87.59,0,0,0,14.27,15.76c12.94,11.08,27.3,16.81,42.68,17h1.17c24.08,0,43.62-10.85,59.72-33.17a5.45,5.45,0,0,0,0-6.79,78.78,78.78,0,0,0-24.7-23.51l-.18-.13a4.69,4.69,0,0,0-2.83-1.05,4.23,4.23,0,0,0-1.62.33l-1.38.58L450,485.7a6.35,6.35,0,0,0,.81,4.12,5.39,5.39,0,0,1,.3.68c4.11,12.33,2.25,22.74-5.68,31.81C439.27,529.4,431.65,533,422.81,533a37.48,37.48,0,0,1-7.76-.85A30,30,0,0,1,394.63,517a32.38,32.38,0,0,1-1.58-27l.13-.22c1.94-3.27.05-5.07-.85-5.69A3.63,3.63,0,0,0,390.27,483.45Zm30.62-7.24c-12.64,0-24.59,11.89-24.6,24.47-.21,4.13,2.14,7.06,6,7.32l.48,0c3.35,0,5.75-2.41,6.26-6.29,1.15-8.69,4.47-12,13.14-13.11,5.61-.72,6.05-4.76,6-6.46s-.84-5.71-6.49-5.93Z" transform="translate(-52.82 -68.01)"/><circle class="cls-5" cx="666.23" cy="476.16" r="93.54"/><path class="cls-6" d="M756.12,557.47q0-9.08,0-18.15c0-2.63.68-3.32,3.28-3.31,4.28,0,8.57,0,12.85.09,5.56.13,10.62,1.67,14.64,5.74a17,17,0,0,1,4.25,8,29.87,29.87,0,0,1,0,15.18c-2,7.5-6.71,12.07-14.32,13.48a58.12,58.12,0,0,1-8.16.77c-3,.13-6.09,0-9.14,0-2.62,0-3.43-.79-3.43-3.38Q756.11,566.68,756.12,557.47Zm8.64.09c0,4.32,0,8.65,0,13,0,1.19.45,1.7,1.64,1.65,1.5-.05,3,0,4.5,0,5.71-.3,9.32-2.82,11-7.78a20.72,20.72,0,0,0-.14-13.89c-1.21-3.34-3.39-5.92-6.91-6.74a52.4,52.4,0,0,0-8.37-.89c-1.28-.09-1.69.82-1.68,2C764.77,549.09,764.76,553.33,764.76,557.56Z" transform="translate(-52.82 -68.01)"/><path class="cls-7" d="M695.52,559.6c-1.15,0-2.3-.07-3.44,0a1.54,1.54,0,0,0-1.55,2c1.25,7.21,7.09,11,13.64,9.37,1.92-.47,3.66-1.62,5.51-2.41.61-.26,1.44-.66,1.91-.44s.64,1.12.86,1.75a3.42,3.42,0,0,1,0,1.05c0,4.09-.2,4.58-4.05,6.09a22.06,22.06,0,0,1-17.74-.51,15.3,15.3,0,0,1-8.49-10,32.58,32.58,0,0,1-.21-18.28c2.91-10.43,11.15-14.4,20.41-14a15.86,15.86,0,0,1,7.21,2,6.29,6.29,0,0,1,2.68,7.66c-.55,1.35-1.07,1.5-2.28.65-3.13-2.21-6.53-3.46-10.43-2.9-4.77.68-9.54,6.39-9.42,11.2,0,1.25.55,1.72,1.78,1.69,2.12-.06,4.24,0,6.36,0,1.18,0,1.67.5,1.73,1.65.18,3.35.12,3.43-3.19,3.43h-1.32Z" transform="translate(-52.82 -68.01)"/><path class="cls-7" d="M750.12,556.72a27.81,27.81,0,0,1-1.53,10.68,15.75,15.75,0,0,1-10.52,10c-5.86,1.76-11.64,1.68-17.2-1.25a3.56,3.56,0,0,1-2.26-3.66c.07-.92,0-1.85,0-2.77.15-1.85,1.2-2.39,2.64-1.26a13.7,13.7,0,0,0,7.31,2.8c6,.59,11-3.32,12-9.94.16-1.1-.55-1.73-1.68-1.75-2,0-4,0-6-.07-1.65,0-1.8-.17-1.86-1.81,0-.31,0-.62,0-.93,0-2,.26-2.32,2.23-2.32s3.88,0,5.83,0c1.48,0,1.78-.32,1.8-1.78.08-5-5.58-12.34-12.56-11.15a17.14,17.14,0,0,0-7.27,2.95c-1.2.86-1.86.65-2.36-.73a6.63,6.63,0,0,1,2.95-7.72c10.12-5.24,23.36.12,27.08,11.08A26.28,26.28,0,0,1,750.12,556.72Z" transform="translate(-52.82 -68.01)"/><path class="cls-6" d="M657.66,578.85c-2.3-.37-4.65-.57-6.89-1.15-3.77-1-5.29-3.55-4.68-7.41.34-2.15,1.52-2.62,3.34-1.39a14.55,14.55,0,0,0,11.07,2.44c3.38-.6,5.44-3.52,4.58-6.36a5.43,5.43,0,0,0-3-3.21c-2.15-1.12-4.41-2.06-6.47-3.31a27,27,0,0,1-5.94-4.33c-5.93-6.43-2.66-16.85,6-19.47a19.61,19.61,0,0,1,13.22.78,5.58,5.58,0,0,1,3,6.94c-.5,1.35-1.7,1.68-3.14.72a13.14,13.14,0,0,0-8.33-2c-3.16.19-5,2.59-4.4,5.46a4.25,4.25,0,0,0,2.31,2.91c2.61,1.38,5.27,2.67,7.86,4.1a23.39,23.39,0,0,1,4.43,2.86c6.14,5.52,4.74,15.9-2.62,20.08A19.31,19.31,0,0,1,657.66,578.85Z" transform="translate(-52.82 -68.01)"/><path class="cls-8" d="M714,537.54s3.89-9.89,5-11.22,0-3.53,0-3.89-3.49-12,13.83-21.73c0,0,19.79-6.18,23-15.55,0,0,1.18,20.17-6.71,31.27-9.34,13.14-21.83,11.53-26,10.87s-4.7,4.51-5.41,5.74-.88,5.3-.88,5.3A2.3,2.3,0,0,1,714,537.54Z" transform="translate(-52.82 -68.01)"/></svg>